<svg xmlns="http://www.w3.org/2000/svg" viewBox="0 0 139.69 191.94"><defs><style>.cls-1{fill:#b0d89a;}.cls-2{fill:#5cba47;}</style></defs><g id="Layer_2" data-name="Layer 2"><g id="Layer_1-2" data-name="Layer 1"><path class="cls-1" d="M83,126.65c-6.43,13.38-3.22,32.7-3.22,32.7-29.46-23.55-17.5-56.64-17.5-56.64C66.2,119.4,83,126.65,83,126.65Zm-48.18,9.49s1.22,17.37,25,14.62C59.86,150.76,44.53,146.2,34.81,136.14Z"/><path class="cls-2" d="M90.75,152.9a66.35,66.35,0,0,1,11.33-36.81c-2.46,1.68-6.51,1.67-6.51,1.67-19.18,0-25.36-21.32-25.36-29.64A97.51,97.51,0,0,1,72,71.22c-13.55,11.94-19.71,33-19.71,45.88s5.09,20,5.09,20C29.17,136.81,24.75,114,24.75,114c-2,12.74,2.29,29.37,2.29,29.37a48.07,48.07,0,0,1-13.68-33.13c0-20.52,15.15-39.7,15.15-39.7-1.35,15.56,9.12,29,9.12,29,0-8.72,7.23-34.61,35.67-54.46S99.19,0,99.19,0c8.32,9.52,13.55,26.42,6,40.9S96.5,72.83,96.5,72.83s-2,16.77,11.27,16.77c20.27,0,15.17-37.29,15.17-37.29C139.56,64,139.63,87.12,139.63,87.12s2.21,15.28-20.52,43.25C94.28,160.92,100,188.92,100,188.92S90.75,174.63,90.75,152.9ZM2,123s-2,8.75-2,14.78,2.11,33.6,41.66,36.82c0,0,36.91,2.72,51.23,17.31,0,0-4-24.14-28.44-29.52s-30.58-.1-51.09-18.82C13.36,143.6,4.56,135.2,2,123Z"/></g></g></svg>