<?xml version="1.0" standalone="no"?>
<!DOCTYPE svg PUBLIC "-//W3C//DTD SVG 20010904//EN"
 "http://www.w3.org/TR/2001/REC-SVG-20010904/DTD/svg10.dtd">
<svg version="1.0" xmlns="http://www.w3.org/2000/svg"
 width="250.000000pt" height="250.000000pt" viewBox="0 0 250.000000 250.000000"
 preserveAspectRatio="xMidYMid meet">
<metadata>
Created by potrace 1.16, written by Peter Selinger 2001-2019
</metadata>
<g transform="translate(0.000000,250.000000) scale(0.100000,-0.100000)"
fill="#000000" stroke="none">
<path d="M1035 2364 c-215 -40 -410 -140 -569 -293 -133 -128 -218 -257 -282
-426 -105 -280 -80 -637 64 -905 175 -327 521 -560 871 -587 l81 -6 0 90 0 90
-166 131 -166 132 -213 0 c-181 0 -216 2 -229 16 -9 8 -16 17 -16 20 0 2 27
52 60 110 33 58 60 109 60 114 0 5 -27 30 -60 55 l-60 46 0 310 0 309 198 157
c109 87 287 228 395 313 l197 155 -2 90 -3 90 -40 2 c-22 1 -76 -5 -120 -13z"/>
<path d="M1277 2373 c-4 -3 -7 -45 -7 -92 l0 -86 197 -155 c108 -85 285 -226
394 -312 l199 -158 0 -309 0 -310 -60 -46 c-33 -25 -60 -51 -60 -56 0 -6 25
-52 55 -104 56 -95 67 -138 39 -149 -9 -3 -109 -6 -223 -6 l-208 0 -84 -66
c-46 -36 -121 -96 -166 -131 l-83 -66 0 -90 0 -90 81 6 c294 23 612 207 792
458 99 139 173 324 198 491 18 125 6 332 -26 448 -117 426 -460 739 -890 814
-98 17 -138 20 -148 9z"/>
<path d="M867 1837 l-357 -282 28 -25 c36 -32 243 -194 259 -203 7 -5 35 35
78 110 37 65 128 223 203 351 164 283 155 278 241 127 32 -55 102 -176 156
-270 54 -93 118 -205 142 -248 29 -50 49 -75 56 -70 42 25 277 218 277 227 -1
6 -44 45 -97 86 -53 41 -184 145 -292 230 -288 229 -316 250 -327 250 -5 0
-170 -127 -367 -283z"/>
<path d="M1217 1879 c-58 -92 -347 -603 -345 -610 2 -4 91 -77 198 -162 l195
-153 5 -145 5 -144 329 -3 c182 -1 333 1 337 5 5 5 -10 40 -33 78 -69 119
-248 428 -413 715 -163 283 -247 425 -255 434 -4 4 -15 -2 -23 -15z"/>
<path d="M490 1229 l0 -245 344 -272 c190 -150 349 -272 355 -272 8 0 11 74
11 234 l0 234 -162 129 c-90 71 -242 192 -338 268 -96 76 -183 145 -192 153
-17 14 -18 3 -18 -229z"/>
<path d="M1845 1365 c-66 -52 -124 -101 -129 -108 -6 -9 18 -59 74 -158 115
-202 98 -186 153 -144 l47 36 0 234 c0 182 -3 235 -12 235 -7 0 -67 -43 -133
-95z"/>
<path d="M558 738 c-20 -35 -34 -66 -31 -70 6 -11 233 -10 233 1 0 7 -153 131
-162 131 -2 0 -20 -28 -40 -62z"/>
<path d="M1270 517 c0 -41 3 -76 6 -80 6 -5 194 139 194 149 0 2 -45 4 -100 4
l-100 0 0 -73z"/>
</g>
</svg>
