<?xml version="1.0" standalone="no"?>
<!DOCTYPE svg PUBLIC "-//W3C//DTD SVG 20010904//EN"
 "http://www.w3.org/TR/2001/REC-SVG-20010904/DTD/svg10.dtd">
<svg version="1.0" xmlns="http://www.w3.org/2000/svg"
 width="243.000000pt" height="250.000000pt" viewBox="0 0 243.000000 250.000000"
 preserveAspectRatio="xMidYMid meet">
<metadata>
Created by potrace 1.16, written by Peter Selinger 2001-2019
</metadata>
<g transform="translate(0.000000,250.000000) scale(0.100000,-0.100000)"
fill="#000000" stroke="none">
<path d="M996 2452 c-2 -4 -7 -24 -11 -45 -4 -20 -11 -37 -16 -37 -5 0 -9 -9
-9 -20 0 -11 -4 -20 -10 -20 -5 0 -10 -12 -10 -27 0 -14 -3 -23 -7 -20 -7 8
-32 -51 -40 -95 -3 -16 -9 -28 -14 -28 -5 0 -9 -9 -9 -20 0 -11 -4 -20 -10
-20 -5 0 -10 -11 -10 -25 0 -14 -4 -25 -9 -25 -5 0 -12 -16 -15 -35 -4 -19
-11 -35 -16 -35 -6 0 -10 -11 -10 -25 0 -14 -4 -25 -10 -25 -5 0 -10 -9 -10
-20 0 -11 -4 -20 -9 -20 -5 0 -11 -15 -15 -32 -8 -42 -29 -88 -38 -88 -5 0 -8
-9 -8 -19 0 -11 -4 -23 -10 -26 -5 -3 -10 -13 -10 -22 0 -9 -11 -39 -24 -67
-35 -75 -52 -116 -67 -161 -8 -22 -18 -43 -24 -47 -5 -4 -132 -8 -281 -8 -239
0 -273 -2 -278 -16 -3 -9 -6 -88 -6 -176 0 -125 3 -163 14 -174 12 -11 53 -14
200 -14 159 0 186 -2 186 -15 0 -8 -4 -15 -10 -15 -5 0 -12 -16 -16 -35 -3
-19 -10 -35 -15 -35 -5 0 -9 -11 -9 -25 0 -14 -4 -25 -10 -25 -5 0 -10 -9 -10
-20 0 -11 -4 -20 -9 -20 -5 0 -11 -15 -15 -32 -8 -42 -29 -88 -38 -88 -5 0 -8
-11 -8 -25 0 -14 -4 -25 -9 -25 -5 0 -12 -16 -15 -35 -4 -19 -11 -35 -16 -35
-6 0 -10 -11 -10 -25 0 -14 -4 -25 -10 -25 -5 0 -10 -9 -10 -19 0 -11 -4 -22
-9 -25 -5 -3 -12 -18 -16 -33 -3 -15 -19 -54 -34 -88 -41 -86 -57 -125 -72
-170 -8 -22 -16 -42 -19 -45 -35 -34 -40 -117 -10 -143 17 -15 44 -17 185 -17
103 0 165 4 165 10 0 6 7 10 15 10 8 0 17 11 21 25 3 14 10 25 15 25 5 0 9 9
9 20 0 11 5 20 10 20 6 0 10 11 10 25 0 14 4 25 9 25 5 0 12 19 16 43 4 23 10
44 14 47 13 11 31 51 31 70 0 11 4 20 8 20 5 0 16 27 26 60 10 33 22 60 27 60
5 0 9 11 9 25 0 14 3 25 8 25 4 0 16 29 27 65 10 36 23 65 27 65 4 0 8 9 8 20
0 11 3 20 8 20 8 0 30 59 39 103 3 15 9 27 14 27 5 0 9 9 9 20 0 11 5 20 10
20 6 0 10 11 10 24 0 14 4 27 9 31 5 3 13 19 16 37 4 17 16 47 26 65 11 19 19
42 19 53 0 11 4 20 10 20 5 0 12 16 16 35 3 19 10 38 15 41 5 3 9 14 9 25 0
10 5 19 10 19 6 0 10 11 10 25 0 14 5 25 10 25 6 0 10 8 10 18 0 9 7 30 15 46
8 15 15 37 15 47 0 11 3 19 8 19 9 0 30 46 38 88 4 17 10 32 15 32 5 0 9 11 9
25 0 14 5 25 10 25 6 0 10 9 10 20 0 11 5 20 10 20 6 0 10 9 10 21 0 21 15 60
51 132 10 22 19 47 19 58 0 10 4 19 10 19 5 0 12 16 16 35 3 19 10 38 15 41 5
3 9 12 9 20 0 9 7 22 15 30 13 14 15 13 15 -10 0 -14 5 -26 10 -26 6 0 10 -9
10 -20 0 -11 4 -20 9 -20 5 0 12 -18 16 -40 4 -22 11 -42 16 -46 5 -3 9 -14 9
-25 0 -10 5 -19 10 -19 6 0 10 -11 10 -25 0 -14 5 -25 10 -25 6 0 10 -6 10
-14 0 -7 7 -27 15 -42 8 -16 15 -39 15 -52 0 -13 4 -20 10 -17 6 4 10 -5 10
-19 0 -14 4 -26 8 -26 4 0 17 -29 27 -65 11 -36 23 -65 28 -65 4 0 7 -11 7
-25 0 -14 4 -25 9 -25 5 0 17 -27 27 -60 10 -33 21 -60 26 -60 4 0 8 -8 8 -18
0 -10 9 -37 20 -60 11 -23 23 -56 27 -72 3 -17 9 -30 14 -30 5 0 9 -11 9 -25
0 -14 5 -25 10 -25 6 0 10 -9 10 -20 0 -11 5 -20 10 -20 6 0 10 -9 10 -21 0
-20 7 -38 50 -134 20 -45 33 -77 34 -87 1 -3 4 -10 9 -14 4 -4 7 -18 7 -31 0
-13 5 -23 10 -23 6 0 10 -9 10 -20 0 -11 5 -20 10 -20 6 0 10 -11 10 -25 0
-14 4 -25 9 -25 5 0 12 -16 15 -35 4 -19 15 -52 25 -72 36 -72 51 -111 51
-132 0 -12 5 -21 10 -21 6 0 10 -9 10 -20 0 -11 5 -20 10 -20 6 0 10 -9 10
-19 0 -11 4 -22 9 -25 5 -4 12 -24 16 -46 4 -22 11 -42 16 -46 5 -3 9 -14 9
-25 0 -10 5 -19 10 -19 6 0 10 -5 10 -10 0 -6 11 -22 25 -35 24 -25 27 -25
194 -25 195 0 211 5 211 70 0 37 -19 90 -32 90 -5 0 -8 9 -8 20 0 11 -4 28
-10 38 -5 9 -16 35 -26 57 -9 22 -24 58 -34 80 -43 97 -50 114 -50 129 0 9 -4
16 -10 16 -5 0 -10 11 -10 25 0 14 -4 25 -10 25 -5 0 -10 9 -10 20 0 11 -4 20
-10 20 -5 0 -13 18 -16 40 -4 22 -10 40 -15 40 -5 0 -9 9 -9 20 0 11 -4 20
-10 20 -5 0 -10 11 -10 25 0 14 -4 25 -10 25 -5 0 -10 7 -10 16 0 16 -17 59
-51 127 -10 22 -19 44 -19 50 0 7 -7 24 -14 40 l-15 27 185 0 c147 0 188 3
200 14 21 21 21 331 0 352 -12 11 -63 14 -280 14 -230 0 -266 2 -266 15 0 8
-4 15 -10 15 -5 0 -10 9 -10 19 0 11 -4 23 -10 26 -5 3 -10 13 -10 22 0 8 -6
29 -14 46 -8 18 -20 47 -27 65 -8 17 -17 32 -20 32 -4 0 -10 16 -13 35 -4 19
-15 52 -25 72 -34 68 -51 111 -51 127 0 9 -4 16 -10 16 -5 0 -10 11 -10 25 0
14 -4 25 -10 25 -5 0 -10 9 -10 20 0 11 -4 20 -10 20 -5 0 -10 8 -10 18 0 9
-7 30 -15 46 -8 15 -15 35 -15 42 0 8 -4 14 -10 14 -5 0 -10 11 -10 25 0 14
-4 25 -10 25 -5 0 -10 7 -10 16 0 9 -6 30 -14 47 -8 18 -20 47 -27 65 -8 17
-17 32 -21 32 -5 0 -8 8 -8 17 0 9 -8 34 -17 54 l-18 38 -217 1 c-119 0 -219
-3 -222 -8z"/>
</g>
</svg>
