<?xml version="1.0" standalone="no"?>
<!DOCTYPE svg PUBLIC "-//W3C//DTD SVG 20010904//EN"
 "http://www.w3.org/TR/2001/REC-SVG-20010904/DTD/svg10.dtd">
<svg version="1.0" xmlns="http://www.w3.org/2000/svg"
 width="64.000000pt" height="64.000000pt" viewBox="0 0 64.000000 64.000000"
 preserveAspectRatio="xMidYMid meet">

<g transform="translate(0.000000,64.000000) scale(0.100000,-0.100000)"
fill="#000000" stroke="none">
<path d="M212 618 c-89 -30 -161 -102 -190 -193 -28 -82 -28 -128 0 -210 30
-92 101 -163 193 -193 82 -28 128 -28 209 -1 46 15 78 34 111 65 25 24 45 47
45 51 0 6 -187 117 -222 131 -4 2 -8 -19 -8 -46 0 -32 -5 -54 -15 -62 -26 -21
-45 5 -45 61 0 27 -2 49 -4 49 -2 0 -24 -11 -48 -25 -39 -22 -47 -23 -58 -11
-15 20 -8 30 40 57 22 13 40 26 40 29 0 3 -18 16 -40 29 -48 27 -55 37 -40 56
10 12 19 11 61 -10 l49 -25 0 49 c0 31 5 53 15 61 26 21 45 -5 45 -61 0 -27 2
-49 4 -49 2 0 24 11 48 25 39 22 47 23 58 11 15 -20 8 -30 -40 -57 -22 -13
-40 -25 -40 -29 0 -10 220 -131 229 -126 12 8 31 87 31 130 0 20 -10 65 -22
101 -30 92 -101 163 -193 193 -81 27 -132 27 -213 0z"/>
</g>
</svg>
