<?xml version="1.0" encoding="UTF-8" standalone="no"?>
<!-- Created with Inkscape (http://www.inkscape.org/) -->

<svg
   version="1.1"
   id="svg2"
   width="984.28931"
   height="984.28796"
   viewBox="0 0 984.28931 984.28796"
   sodipodi:docname="harvest_finance_logo_farm_freelogovectors.net.pdf"
   xmlns:inkscape="http://www.inkscape.org/namespaces/inkscape"
   xmlns:sodipodi="http://sodipodi.sourceforge.net/DTD/sodipodi-0.dtd"
   xmlns="http://www.w3.org/2000/svg"
   xmlns:svg="http://www.w3.org/2000/svg">
  <defs
     id="defs6">
    <clipPath
       clipPathUnits="userSpaceOnUse"
       id="clipPath18">
      <path
         d="M 0,750 H 750 V 0 H 0 Z"
         id="path16" />
    </clipPath>
    <clipPath
       clipPathUnits="userSpaceOnUse"
       id="clipPath30">
      <path
         d="M 118.169,147.201 H 633.281 V 597.924 H 118.169 Z"
         id="path28" />
    </clipPath>
  </defs>
  <sodipodi:namedview
     id="namedview4"
     pagecolor="#ffffff"
     bordercolor="#666666"
     borderopacity="1.0"
     inkscape:showpageshadow="2"
     inkscape:pageopacity="0.0"
     inkscape:pagecheckerboard="0"
     inkscape:deskcolor="#d1d1d1"
     showgrid="false" />
  <g
     id="g10"
     inkscape:groupmode="layer"
     inkscape:label="Page 1"
     transform="matrix(1.3333333,0,0,-1.3333333,-7.8554664,992.14398)">
    <g
       id="g12">
      <g
         id="g14"
         clip-path="url(#clipPath18)">
        <g
           id="g20"
           transform="translate(5.8916,375)">
          <path
             d="m 0,0 c 0,-203.854 165.255,-369.108 369.108,-369.108 203.854,0 369.109,165.254 369.109,369.108 0,203.853 -165.255,369.108 -369.109,369.108 C 165.255,369.108 0,203.853 0,0"
             style="fill:#dbf0f1;fill-opacity:1;fill-rule:nonzero;stroke:none"
             id="path22" />
        </g>
      </g>
    </g>
    <g
       id="g24">
      <g
         id="g26"
         clip-path="url(#clipPath30)">
        <g
           id="g32"
           transform="translate(591.749,305.3643)">
          <path
             d="m 0,0 c 1.691,-1.354 2.804,-2.525 4.469,-3.914 1.009,-0.842 1.016,-0.842 2.007,0.075 0.687,0.641 1.357,1.313 2.062,1.94 2.848,2.559 6.679,2.435 9.329,-0.351 1.055,-1.119 2.05,-2.299 2.979,-3.535 2.292,-3.036 2.063,-7.004 -0.524,-9.768 -0.727,-0.774 -1.498,-1.508 -2.284,-2.217 -0.651,-0.585 -0.674,-1.159 -0.211,-1.896 0.956,-1.516 1.884,-3.053 2.782,-4.611 1.14,-1.971 2.154,-4.023 3.117,-6.095 0.916,-1.974 0.916,-1.96 2.816,-1.323 0.92,0.337 1.856,0.617 2.807,0.839 3.093,0.632 6.026,-0.958 7.346,-4.023 0.802,-1.89 1.401,-3.87 1.785,-5.901 0.57,-2.896 -1.094,-6.11 -3.753,-7.535 -1.033,-0.549 -2.164,-0.789 -3.241,-1.198 -1.302,-0.498 -1.417,-0.597 -1.203,-1.95 0.688,-4.266 1.172,-8.552 1.203,-12.887 0.009,-0.945 0.344,-1.484 1.277,-1.566 0.797,-0.069 1.589,-0.228 2.383,-0.315 3.167,-0.35 5.322,-2.026 6.26,-5.332 0.081,-0.287 0.289,-6.25 0.012,-7.864 -0.608,-3.567 -3.221,-6.108 -6.658,-6.254 -0.742,-0.035 -1.484,0.015 -2.216,0.151 -1.355,0.261 -2.252,-0.344 -2.579,-1.735 -0.807,-3.419 -1.892,-6.739 -3.056,-10.035 -0.343,-0.952 -0.144,-1.788 0.601,-2.458 0.391,-0.35 1.891,-2.069 2.133,-2.641 0.558,-1.314 -1.851,0.731 -2.407,1.071 -1.275,0.778 -16.882,9.942 -22.694,13.229 0.417,3.267 1.918,7.446 2.522,10.666 3.082,16.412 -0.105,31.381 -9.023,45.049 -7.418,11.366 -17.575,18.637 -30.049,22.243 -10.978,3.176 -21.86,2.531 -32.536,-1.614 -8.831,-3.431 -18.502,-9.056 -23.808,-17.908 -0.608,-0.722 -0.895,-0.64 -1.856,-0.184 -3.32,1.761 -16.332,10.771 -21.623,14.045 -2.344,2.503 -3.896,6.596 -2.135,9.619 1.258,2.156 2.945,3.904 4.757,5.475 2.547,2.205 6.237,2.145 8.94,0.069 3.354,-2.57 3.35,-2.559 6.61,0.204 1.702,1.445 3.514,2.724 5.301,4.042 1.663,1.227 1.787,1.722 1.006,3.645 -2.125,5.245 -0.761,9.232 4.029,11.825 1.267,0.715 2.591,1.313 3.955,1.78 3.656,1.185 7.028,-0.202 9.014,-3.668 2.074,-3.612 2.064,-3.607 5.966,-2.653 2.064,0.507 4.157,0.864 6.238,1.269 2.082,0.404 2.398,0.753 2.517,2.944 0.047,1.096 0.203,2.183 0.466,3.242 0.551,2.118 1.547,3.976 3.61,4.81 3.936,1.595 7.909,1.899 11.771,-0.197 2.277,-1.234 3.34,-3.359 3.369,-6.114 0.043,-4.127 0.07,-4.162 3.861,-4.814 2.491,-0.43 4.933,-1.071 7.383,-1.686 1.858,-0.465 2.337,-0.283 3.064,1.623 1.831,4.822 6.389,7.28 11.764,4.474 1.527,-0.799 3.125,-1.38 4.458,-2.663 2.687,-2.59 2.876,-6.413 1.771,-9.202 C -4.272,7.828 -4.461,7.453 -4.613,7.06 -5.35,5.123 -5.429,3.989 -5.429,3.989 -5.429,3.989 -1.666,1.337 0,0"
             style="fill:#5f5f5f;fill-opacity:1;fill-rule:nonzero;stroke:none"
             id="path34" />
        </g>
        <g
           id="g36"
           transform="translate(595.417,218.8467)">
          <path
             d="m 0,0 c 1.563,-1.59 22.443,-13.734 24.241,-14.88 0.536,-0.074 0.948,-0.451 1.433,-0.658 l -0.028,0.017 c 0.374,-0.357 0.73,-0.734 1.068,-1.129 l -0.02,0.025 c 1.654,-2.461 1.644,-5.085 0.688,-7.803 -0.608,-1.443 -1.338,-2.825 -2.182,-4.127 -1.965,-3.147 -5.592,-4.135 -8.782,-2.427 -0.969,0.52 -1.909,1.097 -2.832,1.719 -0.668,0.445 -1.128,0.326 -1.598,-0.335 -2.554,-3.592 -5.396,-6.946 -8.49,-10.024 -0.623,-0.618 -0.697,-1.16 -0.172,-1.877 0.604,-0.81 1.167,-1.656 1.708,-2.514 2.203,-3.473 1.612,-7.482 -1.507,-10.057 -1.085,-0.894 -2.191,-1.763 -3.341,-2.56 -3.094,-2.137 -6.723,-1.534 -9.08,1.487 -0.651,0.849 -1.261,1.733 -1.828,2.647 -0.503,0.802 -1.007,0.983 -1.846,0.473 -3.538,-2.141 -7.275,-3.83 -11.09,-5.327 -1.387,-0.548 -1.376,-0.568 -1.104,-2.11 0.097,-0.537 0.172,-1.08 0.271,-1.616 0.887,-4.521 -0.126,-6.969 -3.845,-9.288 -0.961,-0.567 -2.063,-0.478 -3.096,-0.768 -1.794,-0.457 -3.61,-0.42 -5.438,-0.324 h -0.009 c -0.599,0.316 -1.185,0.654 -1.771,0.995 -1.76,1.56 -2.545,3.614 -3.001,5.969 -0.62,3.189 -0.244,2.673 -3.005,2.535 -3.661,-0.183 -7.328,-0.167 -10.988,0.049 -1.419,0.085 -1.422,0.09 -1.749,-1.309 -0.151,-0.652 -0.324,-1.299 -0.416,-1.961 -0.593,-4.176 -3.757,-7.314 -8.802,-6.292 -1.234,0.252 -2.457,0.591 -3.664,0.969 -3.449,1.077 -5.443,4.613 -4.75,8.372 0.17,0.955 0.38,1.902 0.556,2.859 0.237,1.3 0.221,1.369 -1.006,1.859 -2.36,0.942 -4.707,1.904 -6.976,3.068 -1.341,0.688 -2.668,1.405 -3.989,2.132 -1.375,0.751 -1.367,0.763 -2.328,-0.607 -0.517,-0.731 -0.998,-1.488 -1.533,-2.195 -2.351,-3.133 -6.061,-3.792 -9.196,-1.599 -1.194,0.835 -2.358,1.73 -3.479,2.674 -2.86,2.413 -3.476,6.375 -1.511,9.65 0.585,0.972 1.235,1.902 1.891,2.823 0.456,0.638 0.485,1.148 -0.101,1.736 -3.136,3.121 -6.011,6.524 -8.596,10.171 -0.491,0.696 -0.974,0.693 -1.609,0.268 -0.777,-0.518 -1.578,-0.992 -2.383,-1.464 -3.611,-2.089 -7.372,-1.058 -9.492,2.7 -0.759,1.346 -1.688,2.58 -2.207,4.09 -1.293,3.739 -0.204,7.205 3.026,9.29 0.687,0.443 1.389,0.852 2.062,1.297 1.191,0.774 1.223,0.797 0.697,2.152 -1.093,2.813 -2.031,5.691 -2.814,8.619 -0.342,1.28 -0.67,2.582 -0.955,3.882 -0.207,0.952 -0.674,1.319 -1.594,1.115 -0.732,-0.144 -1.47,-0.246 -2.212,-0.311 -4.368,-0.489 -7.605,2.292 -8.06,6.923 -0.126,1.28 -0.26,2.544 -0.344,3.818 -0.117,1.845 0.436,3.666 1.544,5.089 1.11,1.425 2.691,2.339 4.416,2.56 0.966,0.125 1.937,0.206 2.896,0.365 1.251,0.219 1.293,0.246 1.312,1.637 0.056,3.043 0.275,6.078 0.654,9.094 0.157,1.328 0.574,2.617 0.484,3.975 -0.095,0.929 -0.467,1.505 -1.167,1.795 -0.482,0.148 -0.596,0.213 -1.313,0.402 -1.413,0.366 -2.696,1.018 -3.717,2.118"
             style="fill:#414141;fill-opacity:1;fill-rule:nonzero;stroke:none"
             id="path38" />
        </g>
        <g
           id="g40"
           transform="translate(469.6191,253.5635)">
          <path
             d="m 0,0 c 0.161,0.931 -0.216,2.331 -1.114,2.599 -0.773,0.229 -2.007,0.722 -2.774,0.966 -3.047,0.98 -4.96,3.538 -5.295,6.974 -0.387,1.462 0.825,6.194 1.375,7.729 1.232,3.381 4.248,5.352 7.65,4.806 0.734,-0.114 1.455,-0.312 2.149,-0.593 1.282,-0.531 2.273,-0.114 2.839,1.185 1.399,3.197 3.493,6.363 4.839,9.58 1.305,3.108 0.38,2.851 0.838,2.743 C 11.62,34.969 27.879,26.561 33.004,22.165 29.664,18.325 22.248,0.934 21.938,-4.882"
             style="fill:#414141;fill-opacity:1;fill-rule:nonzero;stroke:none"
             id="path42" />
        </g>
        <g
           id="g44"
           transform="translate(502.8047,276.0078)">
          <path
             d="m 0,0 c 10.378,11.934 17.806,17.056 28.052,20.15 6.234,1.901 12.739,2.589 19.202,2.038 10.878,-0.931 20.701,-4.97 29.351,-12.111 7.627,-6.301 13.182,-14.28 16.972,-23.69 2.319,-5.756 3.543,-11.774 4.116,-18.011 0.82,-8.93 -0.979,-18.906 -3.86,-27.23 -0.583,-0.549 -11.197,7.179 -12.334,8.684 -0.259,0.813 0.063,1.557 0.256,2.31 1.045,4.066 1.72,8.198 1.6,12.423 C 82.783,-15.126 69.772,1.626 51.778,5.72 38.5,8.739 24.42,5.692 11.53,-8.241 11.205,-8.435 11.104,-8.016 8.917,-6.413 5.241,-4.035 3.434,-2.545 0.923,-0.927 -0.517,-0.033 -0.444,-0.515 0,0"
             style="fill:#414141;fill-opacity:1;fill-rule:nonzero;stroke:none"
             id="path46" />
        </g>
        <g
           id="g48"
           transform="translate(596.8584,217.7344)">
          <path
             d="m 0,0 c -0.347,-0.584 -0.659,-1.191 -0.936,-1.817 -3.166,-8.114 -8.235,-14.773 -14.409,-20.414 -8.08,-7.386 -17.454,-11.994 -28.093,-13.472 -2.607,-0.366 -5.219,-0.762 -7.856,-0.675 -7.617,0.258 -14.98,1.75 -22.017,5.01 -4.461,2.079 -8.639,4.792 -12.417,8.062 -5.881,5.062 -10.66,11.141 -14.168,18.347 -3.223,6.637 -5.078,13.656 -5.865,21.055 -0.689,6.368 -0.148,12.619 1.105,18.851 1.433,7.112 4.109,13.665 7.843,19.739 0.532,0.863 2.077,2.823 2.58,3.316 2.712,-1.5 10.118,-6.701 11.306,-7.831 0.748,-1.04 -0.635,-2.41 -1.062,-3.078 -2.277,-3.538 -4.152,-7.273 -5.358,-11.379 -4.201,-14.301 -2.276,-27.612 6.19,-39.579 7.061,-9.985 16.667,-15.458 28.412,-16.712 16.731,-1.787 33.902,8.317 40.969,26.15 0.389,0.984 0.291,2.538 1.88,2.615 C -10.874,6.939 -1.201,0.702 0,0"
             style="fill:#5f5f5f;fill-opacity:1;fill-rule:nonzero;stroke:none"
             id="path50" />
        </g>
        <g
           id="g52"
           transform="translate(584.9365,225.9248)">
          <path
             d="m 0,0 c -1.333,-3.633 -2.822,-7.175 -4.91,-10.408 -6.615,-10.24 -15.645,-16.595 -27.142,-18.784 -11.644,-2.215 -22.303,0.548 -31.779,7.999 -8.336,6.555 -13.655,15.376 -15.709,26.175 -2.426,12.765 0.122,24.513 7.229,35.129 0.266,0.398 0.515,0.798 0.783,1.197 0.268,0.34 3.8,4.487 5.519,6.019 7.619,6.788 16.334,10.269 26.297,10.47 C -21.049,58.174 -4.213,44.734 0.643,25.208 2.585,17.393 2.533,9.559 0.42,1.766 0.263,1.187 0.139,0.589 0,0"
             style="fill:#edae50;fill-opacity:1;fill-rule:nonzero;stroke:none"
             id="path54" />
        </g>
        <g
           id="g56"
           transform="translate(556.7988,239.8682)">
          <path
             d="m 0,0 c 0.315,-6.684 -5.454,-11.857 -10.926,-11.788 -6.244,0.079 -11.369,5.29 -11.313,11.899 0.053,6.461 4.802,11.804 11.39,11.822 C -5.359,11.95 0.304,6.726 0,0"
             style="fill:#414141;fill-opacity:1;fill-rule:nonzero;stroke:none"
             id="path58" />
        </g>
        <g
           id="g60"
           transform="translate(557.4443,262.0762)">
          <path
             d="m 0,0 c 1.268,0.137 2.325,-0.342 3.204,-1.343 0.778,-0.886 1.613,-1.72 2.373,-2.625 1.763,-2.097 0.688,-5.937 -1.595,-6.692 -0.997,-0.33 -1.911,-0.351 -2.788,0.261 -1.879,1.313 -3.48,2.975 -4.903,4.795 -1.51,1.935 -0.742,4.413 1.503,5.252 C -1.501,-0.076 -0.751,0.043 0,0"
             style="fill:#fcd38c;fill-opacity:1;fill-rule:nonzero;stroke:none"
             id="path62" />
        </g>
        <g
           id="g64"
           transform="translate(257.8145,148.0869)">
          <path
             d="m 0,0 c -3.094,1.731 -4.931,4.423 -5.482,8.119 -0.189,1.261 -0.516,2.492 -0.759,3.747 -0.172,0.878 -0.588,1.171 -1.449,1.097 -5.476,-0.489 -10.978,-0.551 -16.463,-0.182 -0.743,0.046 -1.487,0.091 -2.224,0.182 -0.704,0.085 -1.07,-0.224 -1.214,-0.945 -0.262,-1.309 -0.613,-2.6 -0.815,-3.92 -0.628,-4.073 -2.725,-6.873 -6.296,-8.45 -2.285,-0.66 -4.568,-0.429 -6.851,0.022 -2.114,0.418 -4.286,0.613 -6.203,1.795 -0.736,0.576 -1.527,1.073 -2.164,1.788 -2.278,2.56 -3.221,5.549 -2.633,9.035 0.222,1.316 0.516,2.617 0.765,3.93 0.422,2.242 0.418,2.255 -1.547,2.994 -4.475,1.691 -8.839,3.695 -13.066,5.998 -1.018,0.549 -2.049,1.098 -3.022,1.724 -0.743,0.487 -1.237,0.384 -1.72,-0.366 -0.74,-1.154 -1.562,-2.249 -2.298,-3.409 -3.134,-4.952 -9.284,-6.4 -14.118,-2.434 -1.267,1.04 -2.605,1.983 -3.876,3.016 -4.485,3.647 -5.303,9.456 -2.035,14.38 0.856,1.294 1.731,2.574 2.625,3.841 0.425,0.596 0.418,1.085 -0.12,1.574 -0.262,0.236 -0.495,0.506 -0.744,0.757 -4.188,4.235 -8.057,8.814 -11.569,13.695 -0.997,1.386 -1.006,1.38 -2.471,0.485 -0.991,-0.607 -1.979,-1.22 -2.97,-1.828 -5.217,-3.172 -10.398,-1.778 -13.622,3.657 -0.442,0.695 -0.608,0.946 -1.071,1.781 -0.569,1.176 -1.256,2.276 -1.772,3.49 -2.199,5.181 -0.667,10.482 3.935,13.407 1.08,0.688 2.177,1.346 3.267,2.029 1.451,0.915 1.466,0.926 0.842,2.514 -2.006,5.111 -3.661,10.372 -4.951,15.737 -0.214,0.884 -0.447,1.762 -0.619,2.656 -0.172,0.892 -0.661,1.184 -1.48,1.07 -1.532,-0.206 -3.066,-0.444 -4.606,-0.537 -3.954,-0.243 -7.006,1.431 -9.071,5.038 -0.86,1.485 -1.183,3.149 -1.327,4.868 -0.107,1.28 -0.344,2.431 -0.425,3.804 -0.333,5.188 2.459,11.702 8.597,12.171 1.311,0.099 2.616,0.31 3.924,0.462 1.513,0.184 1.567,0.196 1.601,1.728 0.099,4.501 0.443,8.996 1.032,13.457 0.24,1.806 0.515,3.609 0.814,5.405 0.287,1.715 0.289,1.752 -1.318,2.31 -1.204,0.417 -2.407,0.811 -3.592,1.24 -5.147,1.846 -7.805,7.06 -6.361,12.607 0.533,2.051 1.188,4.069 1.891,6.063 1.804,5.136 6.741,7.727 11.691,6.172 1.482,-0.463 2.967,-0.928 4.408,-1.512 0.921,-0.367 1.33,-0.062 1.719,0.802 0.913,2.032 1.905,4.025 2.866,6.026 0.344,0.692 0.66,1.244 0.972,1.879 1.031,2.011 2.126,3.995 3.438,5.828 1.181,1.097 199.912,-123.208 199.352,-124.643 -0.382,-0.73 -0.689,-1.438 -1.055,-2.143 -0.702,-1.325 -1.363,-2.673 -2.11,-3.967 -2.835,-4.906 -7.996,-6.4 -12.812,-3.725 -1.267,0.703 -2.482,1.512 -3.725,2.265 -1.293,0.782 -1.309,0.79 -2.186,-0.417 -1.962,-2.694 -4.013,-5.311 -6.155,-7.844 -1.917,-2.265 -3.944,-4.409 -6.006,-6.518 -0.95,-0.969 -0.949,-0.998 -0.218,-2.101 0.825,-1.244 1.694,-2.45 2.51,-3.699 3.168,-4.847 2.318,-10.676 -2.081,-14.241 -1.41,-1.146 -2.843,-2.257 -4.298,-3.332 -4.572,-3.37 -10.003,-2.449 -13.383,2.264 -0.86,1.209 -1.676,2.467 -2.536,3.682 -0.777,1.098 -0.806,1.114 -1.944,0.456 -4.668,-2.719 -9.512,-5.077 -14.498,-7.058 -0.698,-0.273 -1.401,-0.531 -2.096,-0.812 -1.257,-0.511 -1.28,-0.529 -1.031,-2.013 0.221,-1.316 0.407,-2.65 0.763,-3.929 C 19.881,8.241 17.11,2.469 10.957,0.437 8.297,-0.443 2.536,-1.08 0,0"
             style="fill:#414141;fill-opacity:1;fill-rule:nonzero;stroke:none"
             id="path66" />
        </g>
        <g
           id="g68"
           transform="translate(348.8462,213.8828)">
          <path
             d="m 0,0 c -4.174,2.575 -41.323,26.921 -43.923,28.446 -1.412,0.76 -0.953,0.851 -0.097,2.562 3.038,6.904 5.084,14.254 6.066,21.805 0.708,5.5 0.669,11.025 0.243,16.564 -0.399,5.221 -1.32,10.38 -2.749,15.391 -1.821,6.385 -4.457,12.361 -7.708,18.072 -3.63,6.368 -8.253,11.807 -13.361,16.823 -3.926,3.858 -8.366,6.988 -13.052,9.709 -7.041,4.114 -14.704,6.891 -22.642,8.204 -4.985,0.823 -10.018,1.231 -15.05,0.878 -10.709,-0.749 -20.847,-3.745 -30.277,-9.258 -7.439,-4.462 -14.096,-10.257 -19.68,-17.131 -1.423,-1.754 -3.45,-5.244 -4.844,-7.015 -0.801,-1.016 -14.133,8.182 -32.266,19.593 0.668,1.252 1.313,2.277 2.028,3.37 0.445,0.684 0.409,1.201 -0.172,1.742 -1.112,1.051 -2.221,2.105 -3.313,3.181 -3.473,3.426 -4.284,7.971 -2.109,12.435 0.497,1.022 1.394,3.424 2.762,5.17 0.663,0.846 1.391,1.614 2.106,2.403 3.501,3.851 10.306,3.915 13.959,0.366 4.422,-4.29 3.841,-3.292 7.564,-0.254 3.182,2.591 6.403,5.12 9.769,7.443 1.812,1.249 1.929,1.853 1.013,3.944 -1.022,2.334 -1.941,4.679 -1.744,7.345 0.245,3.292 1.501,6.109 4.03,7.938 3.611,2.607 7.444,4.753 12.05,4.619 3.805,-0.112 6.47,-2.124 8.402,-5.42 0.687,-1.184 1.222,-2.479 1.779,-3.749 0.516,-1.188 1.352,-1.575 2.522,-1.247 4.933,1.373 9.929,2.413 14.957,3.277 1.828,0.316 2.196,0.886 2.266,2.817 0.034,0.67 0.034,1.341 0,2.011 -0.39,6.138 4.08,11.289 9.363,11.645 2.913,0.197 5.83,0.433 8.722,-0.182 4.251,-0.914 8.436,-5.057 8.015,-10.744 -0.059,-0.787 -0.016,-1.582 0,-2.377 0.038,-2.337 0.45,-2.909 2.621,-3.241 4.706,-0.7 9.365,-1.711 13.952,-3.028 2.427,-0.706 2.804,-0.45 3.815,1.964 0.793,1.892 1.587,3.785 2.986,5.303 2.83,3.058 6.352,3.551 10.021,2.688 2.905,-0.684 5.635,-2.086 8.137,-3.82 4.077,-2.826 5.562,-7.905 3.903,-12.844 -0.344,-1.03 -0.759,-2.035 -1.192,-3.029 -0.86,-1.953 -0.715,-2.666 0.995,-3.815 3.589,-2.393 7.045,-5.005 10.352,-7.822 3.623,-3.108 2.976,-3.58 6.973,0.267 3.501,3.371 8.907,3.773 12.099,1.464 3.235,-2.336 6.049,-5.28 7.918,-8.96 1.663,-3.281 1.439,-9.313 -1.872,-12.342 -0.993,-0.914 -1.874,-1.964 -2.796,-2.965 -0.8,-0.868 -0.908,-1.817 -0.275,-2.809 2.958,-4.634 5.608,-9.487 7.926,-14.517 0.57,-1.234 1.548,-1.548 2.751,-1.144 1.416,0.486 2.862,0.871 4.327,1.151 3.916,0.732 8.23,-1.097 10.241,-4.754 1.954,-3.543 3.153,-7.431 3.276,-11.588 C 10.918,91.963 8.779,88.8 5.114,86.694 3.896,86.012 2.612,85.472 1.286,85.082 c -1.4,-0.424 -2.001,-1.332 -1.719,-2.853 0.988,-5.451 1.316,-10.972 1.641,-16.5 0.087,-1.462 0.752,-2.271 2.135,-2.313 1.031,-0.033 2.048,-0.238 3.067,-0.38 5.256,-0.732 8.85,-5.08 8.869,-10.736 0.009,-1.095 -0.04,-2.19 -0.146,-3.279 -0.173,-1.719 -0.75,-4.182 -1.204,-5.789 -1.317,-4.684 -5.758,-7.247 -10.341,-6.938 -1.483,0.099 -2.959,0.352 -4.44,0.509 -1.361,0.141 -1.431,0.124 -1.769,-1.314 -1.019,-4.312 -2.128,-8.594 -3.583,-12.768 -0.678,-1.94 -1.377,-3.873 -2.143,-5.774 -0.342,-0.843 -0.199,-1.36 0.536,-1.801 1.448,-0.87 2.904,-1.721 4.298,-2.681 C 0.209,9.904 1.745,5.247 0.391,0.801 0.282,0.522 0.149,0.256 0,0"
             style="fill:#666059;fill-opacity:1;fill-rule:nonzero;stroke:none"
             id="path70" />
        </g>
        <g
           id="g72"
           transform="translate(197.3408,309.9961)">
          <path
             d="m 0,0 c 1.72,2.194 3.351,4.472 5.233,6.529 8.88,9.705 19.61,15.404 32.279,16.918 11.204,1.343 21.834,-0.731 31.653,-6.606 15.115,-9.047 24.131,-22.836 26.974,-41.01 1.651,-10.558 0.401,-20.863 -3.542,-30.758 -0.222,-0.56 -0.38,-1.148 -0.568,-1.721 0.428,-0.953 0.013,-1.771 -0.362,-2.596 -1.913,-4.207 -4.427,-7.98 -7.337,-11.433 -8.372,-9.928 -18.616,-16.51 -31.049,-18.787 -16.505,-3.019 -31.395,1.041 -44.341,12.392 -10.499,9.206 -16.826,21.128 -18.863,35.421 -1.585,11.124 -0.266,21.963 4.068,32.316 1.05,2.511 2.326,4.884 3.61,7.262 C -1.721,-1.082 -1.037,-0.342 0,0"
             style="fill:#edae50;fill-opacity:1;fill-rule:nonzero;stroke:none"
             id="path74" />
        </g>
        <g
           id="g76"
           transform="translate(206.9307,277.2109)">
          <path
             d="M 0,0 C -0.284,20.501 16.205,36.125 33.696,36.22 50.851,36.313 67.971,21.786 68,-0.184 68.029,-20.577 52.467,-36.076 34.303,-36.275 14.515,-36.493 -0.363,-19.127 0,0"
             style="fill:#45423d;fill-opacity:1;fill-rule:nonzero;stroke:none"
             id="path78" />
        </g>
        <g
           id="g80"
           transform="translate(274.333,310.6641)">
          <path
             d="m 0,0 c 0.284,-3.024 -3.279,-5.397 -5.754,-3.649 -1.68,1.184 -3.267,2.391 -4.598,3.972 -1.917,2.272 -1.48,4.627 1.06,6.111 1.88,1.098 3.634,1.176 5.37,-0.399 C -2.699,4.929 -1.515,3.812 -0.638,2.369 -0.193,1.673 0.03,0.842 0,0"
             style="fill:#fcd38c;fill-opacity:1;fill-rule:nonzero;stroke:none"
             id="path82" />
        </g>
        <g
           id="g84"
           transform="translate(213.7578,276.9678)">
          <path
             d="M 0,0 C -0.421,14.811 10.864,29.258 27.243,29.193 42.544,29.128 54.487,16.076 54.334,-0.248 54.185,-16.341 41.64,-28.958 26.73,-28.761 11.271,-28.559 -0.417,-14.721 0,0"
             style="fill:#edae50;fill-opacity:1;fill-rule:nonzero;stroke:none"
             id="path86" />
        </g>
        <g
           id="g88"
           transform="translate(240.8486,265.3594)">
          <path
             d="m 0,0 c -6.095,0 -11.175,5.392 -11.13,11.887 0.039,6.4 4.702,11.756 11.2,11.826 C 5.998,23.777 11.175,18.567 11.142,11.785 11.111,5.179 6.229,-0.008 0,0"
             style="fill:#414141;fill-opacity:1;fill-rule:nonzero;stroke:none"
             id="path90" />
        </g>
        <g
           id="g92"
           transform="translate(253.708,296.8154)">
          <path
             d="m 0,0 c 0.639,0 1.265,-0.074 1.809,-0.457 2.363,-1.668 3.629,-3.985 3.545,-7.034 -0.045,-1.567 -2.158,-3.215 -3.599,-2.867 -2.436,0.588 -4.422,1.872 -5.778,4.18 -1.173,1.996 -0.94,3.668 0.816,5.08 C -2.256,-0.341 -1.169,-0.032 0,0"
             style="fill:#fcd38c;fill-opacity:1;fill-rule:nonzero;stroke:none"
             id="path94" />
        </g>
        <g
           id="g96"
           transform="translate(197.334,309.9893)">
          <path
             d="m 0,0 c -1.774,-2.986 -3.492,-5.998 -4.864,-9.229 -2.304,-5.452 -3.802,-11.25 -4.437,-17.188 -0.844,-7.49 -0.262,-15.083 1.713,-22.328 1.973,-7.244 5.298,-13.992 9.776,-19.842 6.809,-8.889 15.387,-15.013 25.665,-18.428 5.957,-1.98 12.091,-2.889 18.304,-2.452 16.254,1.142 29.509,8.503 39.638,22.126 2.126,2.873 3.961,5.979 5.473,9.262 0.227,0.488 0.507,0.948 0.761,1.424 1.414,-0.705 12.408,-8.257 14.282,-9.653 0.744,-0.548 0.407,-1.279 0.053,-1.949 -1.93,-3.669 -3.971,-7.264 -6.427,-10.568 -5.371,-7.226 -11.632,-13.388 -19.041,-18.217 -7.19,-4.69 -15.089,-8.023 -23.347,-9.849 -6.389,-1.433 -12.86,-1.646 -19.312,-1.218 -8.583,0.562 -16.807,2.874 -24.636,6.737 -5.364,2.615 -10.391,5.951 -14.958,9.924 -8.983,7.875 -15.951,17.385 -20.458,28.872 -2.881,7.374 -4.683,15.173 -5.342,23.127 -1.031,11.863 0.736,23.281 4.663,34.379 1.439,4.062 3.337,7.876 5.365,11.625 0.2,0.366 0.423,0.731 0.653,1.074 1.233,1.862 1.467,1.92 3.3,0.809 C -10.099,6.571 -4.18,2.668 -1.166,0.71 -0.763,0.501 -0.374,0.265 0,0"
             style="fill:#666059;fill-opacity:1;fill-rule:nonzero;stroke:none"
             id="path98" />
        </g>
        <g
           id="g100"
           transform="translate(292.8726,265.1309)">
          <path
             d="m 0,0 c 1.553,7.36 1.698,14.978 0.427,22.396 -1.272,7.421 -3.936,14.493 -7.832,20.794 -6.512,8.935 -14.695,16.458 -23.774,21.106 -5.667,2.597 -11.74,4.044 -17.907,4.266 -16.279,0.617 -30.236,-5.121 -41.605,-17.588 -1.788,-1.996 -3.467,-4.1 -5.029,-6.302 -1.337,0.853 -13.652,7.535 -15.383,9.126 -0.688,0.632 4.681,7.103 7.441,10.126 6.031,6.61 12.848,12.07 20.68,16.068 7.331,4.024 15.711,6.321 24.166,7.279 6.482,0.745 13.029,0.561 19.466,-0.548 8.484,-1.488 16.307,-4.998 23.725,-9.693 5.088,-3.18 9.771,-7.042 13.937,-11.486 8.185,-8.804 14.209,-19.02 17.602,-30.933 2.163,-7.648 3.21,-15.603 3.107,-23.589 -0.111,-11.912 -2.924,-22.858 -7.006,-31.672 -0.809,-1.749 -0.076,-1.704 -2.423,0 -2.883,2.195 -10.076,6.776 -13.113,8.849 C -3.709,-11.647 -1.23,-5.867 0,0"
             style="fill:#45423d;fill-opacity:1;fill-rule:nonzero;stroke:none"
             id="path102" />
        </g>
        <g
           id="g104"
           transform="translate(217.2974,575.6167)">
          <path
             d="m 0,0 c -1.251,4.235 -2.212,8.554 -3.267,12.846 -0.278,1.13 0.035,1.434 1.168,1.726 62.691,16.217 138.928,3.826 178.083,-8.79 6.205,-2.368 12.245,-5.12 17.832,-8.886 2.425,-1.634 4.725,-3.436 6.532,-5.851 0.504,-0.662 0.958,-1.365 1.358,-2.103 0.946,-1.794 1.159,-3.603 0.266,-5.565 -2.061,-4.552 -4.305,-9.001 -6.729,-13.349 -1.567,-2.83 -3.178,-5.633 -4.766,-8.451 -0.748,-1.368 -1.587,-2.677 -2.513,-3.916 -0.809,-0.803 -1.718,-0.416 -2.591,-0.208 -3.834,0.914 -7.707,1.629 -11.519,2.628 -0.28,0.073 -0.565,-0.052 -0.851,-0.062 -3.991,1.375 -8.206,1.532 -12.26,2.56 -0.532,0.135 -0.993,-0.207 -1.502,-0.116 -6.66,1.377 -13.411,2.072 -20.116,3.052 -2.357,0.346 -4.792,0.163 -7.077,1.059 -0.875,0.982 -1.032,2.266 -1.325,3.504 -1.69,7.303 -3.886,14.391 -7.909,20.685 -0.613,0.957 -1.278,1.869 -1.975,2.758 -2.092,2.671 -4.591,4.261 -7.983,4.734 C 104.009,-0.507 95.148,0.563 86.262,1.364 71.477,2.705 56.674,2.933 41.861,2.71 34.551,2.602 27.248,2.084 19.951,1.415 13.91,0.867 7.883,0.215 1.872,-0.631 1.128,-0.708 0.485,-0.66 0,0"
             style="fill:#edae50;fill-opacity:1;fill-rule:nonzero;stroke:none"
             id="path106" />
        </g>
        <g
           id="g108"
           transform="translate(425.1885,448.106)">
          <path
             d="m 0,0 c -4.164,0.031 -8.328,0.123 -12.491,0.06 -1.326,-0.018 -1.621,0.803 -1.909,1.818 -1.128,0.366 -1.098,1.463 -1.27,2.377 -1.348,7.039 -2.614,14.097 -4.079,21.11 -3.602,17.242 -7.648,34.362 -12.572,51.239 -0.849,2.907 -1.761,5.792 -2.59,8.708 -0.253,0.886 -0.735,1.854 0.082,2.743 0.299,0.365 0.702,0.365 1.098,0.29 4.632,-0.914 9.262,-1.828 13.814,-3.149 2.988,-8.946 5.501,-18.047 7.82,-27.21 C -8.945,45.533 -6.24,32.965 -3.72,20.353 -2.779,15.642 -0.011,0.117 0,0"
             style="fill:#45423d;fill-opacity:1;fill-rule:nonzero;stroke:none"
             id="path110" />
        </g>
        <g
           id="g112"
           transform="translate(217.2983,575.6201)">
          <path
             d="m 0,0 c 5.476,0.995 11.003,1.572 16.527,2.099 3.983,0.38 7.988,0.624 11.981,0.914 11.096,0.82 22.202,0.803 33.305,0.604 8.064,-0.145 16.123,-0.6 24.173,-1.28 5.364,-0.454 10.716,-0.975 16.058,-1.624 4.487,-0.548 8.939,-1.34 13.429,-1.962 1.45,-0.2 2.545,-0.957 3.582,-1.964 3.573,-3.474 6.097,-7.725 8.079,-12.362 2.36,-5.511 3.979,-11.275 5.053,-17.217 -0.25,-0.833 -0.889,-0.844 -1.536,-0.802 -2.851,0.183 -5.708,0.397 -8.551,0.678 -2.506,0.247 -5.024,0.366 -7.527,0.516 -3.99,0.234 -7.986,0.695 -11.995,0.459 -1.548,-0.093 -3.074,0.322 -4.617,0.347 -2.091,0.033 -2.74,-0.448 -3.466,-2.509 -4.274,-12.155 -7.793,-24.56 -10.887,-37.108 -4.779,-19.384 -8.423,-39.021 -11.488,-58.784 -0.823,-5.281 -1.491,-10.588 -2.223,-15.885 -0.15,-1.077 -0.259,-2.181 -0.905,-3.108 -0.504,-0.538 -1.144,-0.575 -1.761,-0.405 -2.873,0.789 -5.728,1.671 -8.595,2.483 -0.224,0.055 -0.433,0.166 -0.608,0.325 -0.174,0.159 -0.309,0.362 -0.393,0.589 -0.463,1.323 -0.172,2.667 0.014,3.97 2.922,21.376 6.499,42.619 11.206,63.635 3.328,14.864 7.12,29.577 11.98,43.967 0.735,2.175 0.322,2.808 -1.827,2.834 -8.517,0.101 -17.02,-0.214 -25.533,-0.647 -4.278,-0.22 -8.554,-0.407 -12.821,-0.787 -0.285,0 -0.572,-0.011 -0.859,-0.013 -4.455,-0.03 -4.558,-0.135 -5.962,-4.544 -8.175,-25.633 -13.89,-51.911 -18.305,-78.538 -1.32,-7.964 -2.477,-15.953 -3.653,-23.94 -0.107,-0.733 -0.183,-1.452 -0.616,-2.066 -0.412,-0.706 -1.093,-0.801 -1.778,-0.914 -3.551,-0.547 -7.124,-0.93 -10.658,-1.598 -0.797,-0.152 -1.775,-0.332 -1.935,1.032 0.593,4.209 1.187,8.419 1.781,12.628 1.541,10.95 3.285,21.861 5.234,32.733 2.555,14.245 5.477,28.379 9.088,42.342 1.719,6.624 3.495,13.233 5.656,19.713 0.756,2.271 0.753,2.271 -0.882,3.84 -3.944,3.798 -7.874,7.611 -11.839,11.385 -0.728,0.68 -1.239,1.586 -1.459,2.589 -1.343,5.536 -2.751,11.053 -4.137,16.577 -0.24,0.565 -0.351,1.181 -0.327,1.799 z"
             style="fill:#45423d;fill-opacity:1;fill-rule:nonzero;stroke:none"
             id="path114" />
        </g>
        <g
           id="g116"
           transform="translate(217.3052,575.6255)">
          <path
             d="M 0,0 C 0.21,-0.58 0.449,-1.152 0.327,-1.799 -0.017,-1.252 -0.454,-0.715 0,0"
             style="fill:#a9a9a9;fill-opacity:1;fill-rule:nonzero;stroke:none"
             id="path118" />
        </g>
        <g
           id="g120"
           transform="translate(308.3311,416.6772)">
          <path
             d="m 0,0 c -6.587,3.764 -13.495,6.729 -20.558,9.298 -0.644,0.235 -1.318,0.409 -1.809,0.969 0.727,5.36 1.4,10.729 2.19,16.078 1.834,12.384 3.976,24.705 6.425,36.966 3.731,18.583 8.193,36.953 14.061,54.914 0.94,2.875 1.912,5.736 2.889,8.594 0.493,1.447 0.515,1.452 1.972,1.409 8.124,-0.246 16.247,-0.577 24.36,-1.118 3.881,-0.257 7.754,-0.638 11.632,-0.964 6.405,-0.654 12.789,-1.493 19.161,-2.454 2.707,-0.409 5.415,-0.786 8.103,-1.318 1.547,-0.656 2.505,-1.915 3.438,-3.359 3.55,-5.499 6.378,-11.436 8.73,-17.555 2.461,-6.4 4.714,-12.928 6.233,-19.693 0.599,-2.662 1.446,-5.257 2.064,-7.911 2.01,-8.731 4.241,-17.406 5.867,-26.238 0.834,-4.53 1.719,-9.056 2.817,-13.533 0.293,-1.19 0.778,-2.538 -0.665,-3.395 -0.154,-0.183 -0.282,-0.412 -0.47,-0.52 -2.551,-1.435 -4.277,-3.772 -5.951,-6.155 -2.8,-3.977 -5.57,-7.976 -8.351,-11.968 -0.784,-0.365 -1.431,-0.063 -2.073,0.425 -3.349,2.553 -6.731,5.061 -10.143,7.526 -1.734,1.256 -1.868,1.885 -0.704,3.739 1.651,2.634 3.428,5.175 5.132,7.77 0.655,0.998 1.355,1.97 1.889,3.049 0.966,1.956 0.613,3.907 -0.87,5.076 -1.483,1.168 -3.329,0.931 -4.751,-0.764 -1.793,-2.14 -3.206,-4.592 -4.737,-6.95 C 61.018,24.466 56.147,17.02 51.266,9.578 50.808,8.879 50.341,8.181 50.028,7.384 c -0.713,-1.811 -0.215,-3.675 1.23,-4.68 1.496,-1.038 3.217,-0.833 4.483,0.71 1.774,2.157 3.176,4.615 4.718,6.948 0.984,1.498 1.964,2.997 2.979,4.47 0.706,1.024 1.487,1.175 2.504,0.481 3.71,-2.537 7.252,-5.33 10.871,-8.001 0.607,-0.45 1.204,-0.979 1.179,-1.898 -1.131,-1.961 -2.26,-3.928 -3.399,-5.882 -0.572,-0.982 -1.187,-1.937 -1.751,-2.927 -2.354,-4.09 -2.426,-8.319 -0.399,-12.519 5.464,-11.305 11.142,-22.491 17.547,-33.236 0.798,-1.338 1.656,-2.629 2.458,-3.958 2.257,-3.743 5.627,-5.245 9.596,-5.37 3.827,-0.121 7.645,0.325 11.458,0.683 -0.087,-16.928 -4.643,-32.415 -13.168,-46.666 -1.196,-1.995 -2.487,-2.848 -4.814,-2.774 -6.172,0.194 -12.354,0.037 -18.531,0.018 -1.247,0.183 -1.204,1.356 -1.374,2.239 -0.732,3.631 -1.695,7.19 -2.714,10.74 -3.905,13.696 -9.57,26.75 -16.831,38.799 -2.346,3.896 -4.966,7.574 -7.423,11.379 -2.286,3.171 -4.749,6.189 -7.292,9.119 -4.528,5.217 -9.229,10.259 -14.373,14.813 C 19.54,-13.581 11.57,-7.748 3.165,-2.691 2,-1.948 0.605,-1.486 0,0"
             style="fill:#b9e1e1;fill-opacity:1;fill-rule:nonzero;stroke:none"
             id="path122" />
        </g>
        <g
           id="g124"
           transform="translate(404.8447,446.9443)">
          <path
             d="m 0,0 c 0.477,1.097 0.435,2.611 0.188,3.645 -2.17,9.005 -17.505,71.794 -26.176,85.611 -1.05,1.675 -1.298,2.119 -2.125,2.852 4.072,-0.336 8.066,-1.25 12.103,-1.85 0.309,-0.038 0.606,-0.153 0.864,-0.336 0.259,-0.182 0.475,-0.427 0.628,-0.715 C -9.103,71.711 -4.455,53.989 -0.579,36.039 1.797,25.1 4.235,13.346 6.174,2.308 6.18,2.283 6.188,2.258 6.203,2.236 6.592,1.467 6.692,1.679 4.424,1.377 3.019,1.185 1.127,0.518 0,0"
             style="fill:#dcf9fb;fill-opacity:1;fill-rule:nonzero;stroke:none"
             id="path126" />
        </g>
        <g
           id="g128"
           transform="translate(275.3159,429.8369)">
          <path
             d="m 0,0 c -3.526,0.73 -7.049,1.531 -10.583,2.173 -4.218,0.76 -8.469,1.285 -12.738,1.571 -4.04,0.28 -8.046,0.365 -12.093,0.375 -2.274,0 -4.578,-0.235 -6.866,-0.056 -0.937,0.765 -0.769,1.801 -0.633,2.841 1.941,14.889 4.198,29.714 7.14,44.436 2.063,10.368 4.385,20.664 7.244,30.809 2.731,9.692 5.911,19.214 10.84,27.942 0.743,1.313 0.859,2.399 0.074,3.63 0.543,0.232 1.121,0.23 1.69,0.258 12.973,0.625 25.945,1.303 38.937,1.177 0.56,0 1.143,0.141 1.687,-0.156 0.219,-0.656 -0.145,-1.191 -0.333,-1.738 C 18.639,96.621 14.308,79.534 10.582,62.274 7.42,47.63 4.795,32.876 2.532,18.048 1.621,12.039 0.846,6.014 0,0"
             style="fill:#b9e1e1;fill-opacity:1;fill-rule:nonzero;stroke:none"
             id="path130" />
        </g>
        <g
           id="g132"
           transform="translate(258.8521,543.7866)">
          <path
             d="m 0,0 c 2.323,0.289 2.103,0.154 0.71,-2.377 -3.76,-6.832 -6.927,-13.856 -9.345,-21.267 -1.404,-4.296 -2.763,-8.631 -3.814,-13.063 -1.146,-4.834 -2.499,-9.612 -3.564,-14.473 -1.078,-4.919 -1.987,-9.875 -2.984,-14.812 -1.022,-5.056 -2.063,-10.107 -2.84,-15.211 -1.204,-7.924 -2.366,-15.853 -3.487,-23.788 -0.227,-1.615 -0.516,-3.241 -0.469,-4.894 -0.58,-0.276 -4.548,-0.712 -4.85,0 0.261,3.89 0.947,7.721 1.513,11.563 1.399,9.494 2.972,18.957 4.717,28.389 4.073,21.798 9.091,43.339 15.817,64.391 0.425,1.323 0.927,2.622 1.304,3.96 0.219,0.785 0.658,1.076 1.361,1.097 C -4.32,-0.399 -0.285,0.013 0,0"
             style="fill:#dcf9fb;fill-opacity:1;fill-rule:nonzero;stroke:none"
             id="path134" />
        </g>
        <g
           id="g136"
           transform="translate(473.3213,275.6475)">
          <path
             d="m 0,0 c -4,0.327 -8.458,3.675 -11.642,-4.973 -3.165,-8.573 1.488,-11.875 0.786,-11.587 -0.346,0.047 -0.696,0.059 -1.043,0.037 -2.621,-0.035 -5.33,0.427 -7.946,0.43 -0.926,0.453 -0.708,1.259 -0.551,2.04 1.316,6.739 3.334,13.301 6.016,19.567 3.548,8.214 7.893,15.908 13.335,22.893 7.565,9.701 16.429,17.739 26.736,23.982 10.727,6.498 22.244,10.517 34.442,12.269 5.894,0.845 11.838,1.162 17.794,0.718 2.261,-0.169 4.027,0.812 5.243,2.794 0.494,0.807 1.041,1.42 1.89,1.74 0.981,0.012 1.875,-0.431 2.812,-0.655 2.062,-0.49 2.277,-0.412 3.182,1.573 1.46,3.208 2.975,6.384 4.863,9.345 0.464,0.318 0.852,0.75 1.132,1.257 2.446,3.984 5.574,7.279 9.253,9.983 0.102,0.052 0.219,0.072 0.333,0.06 1.331,0 1.677,-1.082 1.999,-2.138 1.408,-4.636 2.991,-9.193 4.95,-13.608 3.242,-7.315 7.248,-14.082 12.389,-20.053 0.765,-0.89 1.735,-1.684 1.286,-3.136 l -8.033,-14.994 c -0.393,-0.731 -0.83,-1.445 -1.245,-2.167 -0.745,-1.259 -1.585,-2.451 -2.51,-3.564 -0.242,0.185 -0.498,0.348 -0.765,0.488 -0.155,0.08 -0.446,0.354 -0.596,0.442 -2.804,1.623 -2.408,1.731 -1.01,4.756 0.875,1.905 1.331,3.839 0.778,5.989 -0.219,0.889 -0.608,1.718 -1.143,2.439 -0.534,0.719 -1.204,1.315 -1.964,1.747 -1.792,1.036 -3.654,2.012 -5.703,2.47 -2.875,0.633 -5.879,-0.784 -7.261,-3.548 C 97.35,45.681 97.029,44.7 96.603,43.769 95.994,42.41 95.644,42.22 94.318,42.622 c -3.528,1.069 -7.09,1.943 -10.74,2.376 -0.344,0.042 -0.669,0.184 -1.009,0.216 -0.975,0.124 -1.385,0.732 -1.375,1.732 0,0.976 -0.062,1.951 0,2.927 0.224,3.685 -1.983,6.175 -5.186,6.848 -2.31,0.487 -4.691,0.454 -6.987,-0.096 -2.937,-0.703 -4.675,-2.61 -5.084,-5.851 -0.166,-1.203 -0.261,-2.415 -0.291,-3.629 -0.015,-1.583 -0.117,-1.717 -1.62,-2.029 -1.851,-0.387 -3.72,-0.678 -5.573,-1.053 -1.912,-0.388 -3.804,-0.871 -5.675,-1.451 -1.215,-0.378 -1.5,-0.226 -2.007,0.981 -0.468,1.109 -0.906,2.233 -1.508,3.272 -1.587,2.743 -4.455,4.011 -7.392,3.207 -2.11,-0.588 -4.117,-1.531 -5.944,-2.795 -2.664,-1.828 -3.637,-5.281 -2.51,-8.537 0.336,-0.968 0.829,-1.871 1.222,-2.819 0.494,-1.192 0.452,-1.475 -0.532,-2.115 -3.471,-2.26 -6.685,-4.899 -9.88,-7.566 -0.934,-0.78 -1.19,-0.789 -2.064,0.068 -0.777,0.808 -1.601,1.561 -2.469,2.258 -2.457,1.892 -5.811,1.915 -8.121,-0.159 C 7.962,26.96 6.438,25.384 5.293,23.45 3.555,20.524 3.955,17.051 6.324,14.673 7.282,13.71 7.381,13.638 8.938,12.506 6.545,9.961 1.874,3.091 0.504,0.383"
             style="fill:#414141;fill-opacity:1;fill-rule:nonzero;stroke:none"
             id="path138" />
        </g>
        <g
           id="g140"
           transform="translate(441.3203,259.8984)">
          <path
             d="m 0,0 c -9.62,0.011 -19.238,0.021 -28.859,0.03 h -45.867 c -3.523,0 -3.583,0.119 -3.093,3.797 0.344,2.683 0.405,5.358 -1.01,7.796 -1.524,2.631 -3.678,4.316 -6.572,4.788 -1.412,0.246 -2.836,0.401 -4.266,0.462 -1.719,0.051 -2.03,0.507 -2.094,2.354 -0.206,5.96 -0.665,11.883 -1.742,17.759 -0.428,2.324 -0.31,2.52 1.88,3.163 1.772,0.519 3.498,1.164 5.081,2.175 3.929,2.518 5.083,6.814 4.141,11.233 -0.43,2.01 -1.085,3.976 -1.719,5.931 -1.65,5.073 -6.017,7.711 -10.97,6.725 -1.697,-0.339 -3.323,-0.915 -4.958,-1.464 -1.344,-0.457 -1.512,-0.412 -2.136,0.978 -2.602,5.833 -5.67,11.419 -9.172,16.694 -0.659,0.985 -0.623,1.292 0.378,2.094 1.376,1.107 2.49,2.514 3.765,3.733 3.07,2.925 3.013,9.084 1.178,12.024 -1.73,2.768 -3.921,5.122 -6.307,7.188 -2.998,2.611 -8.261,2.704 -11.596,-0.486 -1.148,-1.096 -2.452,-2.011 -3.467,-3.263 -0.609,-0.752 -1.171,-0.77 -1.892,-0.121 -1.7,1.534 -3.417,3.049 -5.182,4.5 -2.763,2.27 -5.672,4.316 -8.623,6.314 -2.556,1.731 -2.437,1.341 -1.138,4.207 0.543,1.139 1.019,2.314 1.428,3.517 1.487,4.684 0.138,9.814 -4.604,12.375 -2.046,1.097 -4.102,2.228 -6.307,2.867 -3.094,0.895 -6.115,0.731 -8.835,-1.418 -1.103,-0.882 -1.988,-2.038 -2.579,-3.366 -0.732,-1.584 -1.375,-3.213 -2.076,-4.811 -0.532,-1.204 -0.648,-1.28 -1.847,-0.879 -4.597,1.536 -9.297,2.585 -14.051,3.388 -1.129,0.182 -2.263,0.366 -3.393,0.538 -1.639,0.253 -1.766,0.388 -1.795,2.218 -0.023,1.522 -0.017,3.044 0,4.572 0.037,4.227 -2.063,6.949 -5.464,8.713 -0.978,0.525 -2.048,0.826 -3.141,0.883 -2.569,0.093 -5.142,0.267 -7.707,-0.183 -4.891,-0.87 -7.93,-4.502 -8.081,-9.761 -0.037,-1.339 0,-2.679 -0.015,-4.023 -0.024,-2.054 -0.104,-2.116 -1.962,-2.43 -5.711,-0.963 -11.405,-2.013 -16.955,-3.798 -1.323,-0.425 -1.481,-0.333 -2.086,1.056 -0.577,1.327 -1.139,2.66 -1.72,3.984 -2.286,5.269 -7.589,6.972 -12.475,5.077 -1.83,-0.705 -3.616,-1.532 -5.348,-2.477 -2.842,-1.565 -4.716,-3.978 -5.33,-7.416 -0.315,-1.804 -0.156,-3.667 0.461,-5.381 0.533,-1.547 1.24,-3.009 1.907,-4.491 0.566,-1.259 0.502,-1.546 -0.579,-2.242 -4.561,-2.945 -8.822,-6.332 -12.98,-9.875 -0.535,-0.455 -1.032,-0.971 -1.548,-1.438 -0.889,-0.794 -1.162,-0.792 -2.063,0.033 -0.995,0.914 -2.022,1.797 -2.953,2.782 -3.513,3.715 -10.089,3.692 -13.498,-0.255 -1.006,-1.162 -1.963,-2.376 -2.995,-3.511 -1.248,-1.371 -1.331,-1.323 -2.61,-0.069 -1.086,1.069 -3.648,3.464 -3.83,3.606 -1.708,2.025 -1.637,2.04 0.091,4.115 14.69,17.637 33.312,31.062 54.155,39.043 10.506,4.023 21.318,6.645 32.428,7.664 6.785,0.599 13.603,0.668 20.398,0.205 9.202,-0.588 18.322,-2.194 27.21,-4.794 7.293,-2.122 14.386,-4.953 21.19,-8.458 4.649,-2.332 9.158,-4.967 13.503,-7.889 6.084,-4.098 11.845,-8.719 17.224,-13.816 5.146,-4.915 9.977,-10.192 14.462,-15.791 0.608,-0.806 1.178,-1.643 1.706,-2.51 4.196,-5.037 7.564,-10.698 10.709,-16.49 6.323,-11.598 11.054,-24.098 14.049,-37.122 1.045,-4.554 1.741,-9.177 2.514,-13.787 0.671,-4.023 3.446,-5.401 6.851,-3.453 4.27,2.442 6.981,8.245 6.361,13.386 -0.135,1.115 -0.859,2.376 0.266,3.424 0.891,0.534 1.876,0.491 2.847,0.494 5.158,0.017 10.304,0.071 15.455,-0.025 2.127,-0.04 3.551,0.804 4.691,2.679 4.26,7.019 7.505,14.68 9.628,22.724 1.673,6.277 2.875,12.652 3.284,19.181 0.048,0.67 0.038,1.345 -0.032,2.011 -0.089,0.795 0.097,1.447 0.789,1.862 1.117,0.022 3.56,0.173 3.671,0.183 4.277,0.27 4.277,0.266 4.285,-4.307 0,-3.474 -0.019,-6.949 0.012,-10.411 0.027,-3.175 0.822,-4.156 3.741,-4.938 6.987,-1.892 14.059,-2.503 21.267,-2.105 3.329,0.183 6.585,0.819 9.889,1.097 0.684,0.081 1.354,0.266 1.987,0.549 2.006,0.817 2.597,1.646 2.626,3.964 0.052,4.323 -0.016,8.646 0.037,12.97 0.013,0.942 -0.17,1.977 0.617,2.742 1.297,1.061 2.537,0.251 3.697,-0.266 2.866,-1.279 5.022,-3.553 7.003,-6.013 3.665,-4.556 6.387,-9.758 8.968,-15.049 0.226,-0.427 0.323,-0.918 0.275,-1.405 -0.092,-1.184 -0.9,-1.775 -1.72,-2.341 C 40.109,69.076 34.045,63.564 28.468,57.412 22.07,50.363 16.765,42.481 12.272,33.965 7.054,24.071 3.504,13.526 1.408,2.409 1.228,1.479 1.406,0.155 0,0"
             style="fill:#45423d;fill-opacity:1;fill-rule:nonzero;stroke:none"
             id="path142" />
        </g>
        <g
           id="g144"
           transform="translate(441.3154,259.8984)">
          <path
             d="m 0,0 c 0.435,2.076 0.848,4.156 1.305,6.218 3.738,16.941 10.919,32.059 21.289,45.489 6.883,8.975 15.049,16.744 24.197,23.027 0.526,0.368 1.106,0.659 1.431,1.282 0.412,0.73 31.614,22.087 66.507,15.224 2.077,-1.603 2.322,-4.688 1.194,-7.485 -1.104,-2.729 -3.157,-3.588 -6.449,-3.502 -3.037,0.078 -6.069,0.251 -9.093,0.075 C 95.295,80.058 90.237,79.374 85.252,78.282 71.591,75.238 59.147,69.334 47.984,60.424 34.942,50.016 25.099,36.851 18.339,21.082 15.602,14.642 13.537,7.9 12.187,0.979 12.104,0.562 10.982,-6.125 10.64,-9.079 c -0.314,-2.743 -1.548,-4.655 -4.037,-5.562 -3.658,-1.326 -7.564,1.512 -7.643,5.619 -0.044,2.069 0.375,4.105 0.668,6.145 C -0.255,-2.069 -0.128,-0.134 0,0"
             style="fill:#a19d98;fill-opacity:1;fill-rule:nonzero;stroke:none"
             id="path146" />
        </g>
        <g
           id="g148"
           transform="translate(411.5449,274.1475)">
          <path
             d="m 0,0 c -6.239,0 -12.479,-0.021 -18.717,0.008 -2.923,0.014 -5.04,1.532 -6.245,4.315 -1.206,2.783 -0.834,5.487 0.916,7.903 1.389,1.911 3.377,2.644 5.585,2.718 1.488,0.05 2.977,0.022 4.471,0.02 10.531,-0.008 21.061,-0.015 31.593,-0.023 1.996,0 3.853,-0.365 5.435,-1.806 C 25.221,11.141 26.111,7.91 25.202,5.032 24.758,3.573 23.892,2.3 22.728,1.394 21.563,0.489 20.162,-0.003 18.72,-0.012 12.48,-0.047 6.244,-0.022 0.005,-0.022 Z"
             style="fill:#fcbe4f;fill-opacity:1;fill-rule:nonzero;stroke:none"
             id="path150" />
        </g>
        <g
           id="g152"
           transform="translate(214.1714,432.0244)">
          <path
             d="m 0,0 c 0.39,-0.332 0.837,-0.34 1.296,-0.243 3.903,0.811 7.85,1.28 11.801,1.714 0.344,0.041 0.172,0.036 1.147,0.134 13.874,1.098 32.367,0.29 46.91,-3.796 3.206,-0.943 6.437,-1.645 9.647,-2.582 0.328,-0.021 16.037,-6.131 22.141,-9.621 0.548,-0.414 0.813,-0.636 1.204,-0.955 0.25,-2.992 -0.624,-5.241 -2.268,-7.284 -2.289,-2.847 -5.312,-4.888 -8.695,-6.181 -4.351,2.012 -8.685,4.072 -13.179,5.721 -7.952,2.922 -16.145,5.042 -24.471,6.329 -7.254,1.1 -14.58,1.57 -21.906,1.409 -8.644,-0.155 -17.25,-1.254 -25.682,-3.282 -26.171,-6.253 -49.901,-20.914 -67.972,-41.997 -0.578,-0.678 -1.167,-1.341 -1.747,-2.012 -1.203,-1.405 -1.729,-2.315 -2.617,-3.432 -1.473,-1.859 -2.906,-3.755 -4.342,-5.647 -3.352,-4.417 -9.245,-4.653 -12.915,-0.024 -2.484,3.136 -2.063,7.864 -0.041,10.842 2.205,3.187 4.561,6.252 7.061,9.183 2.554,3.041 5.044,6.146 7.844,8.939 3.926,3.91 7.833,7.851 12.102,11.337 14.577,11.909 30.554,20.99 48.162,26.725 4.653,1.519 9.379,2.774 14.158,3.759 C -1.52,-0.795 -0.636,-0.732 0,0"
             style="fill:#edae50;fill-opacity:1;fill-rule:nonzero;stroke:none"
             id="path154" />
        </g>
        <g
           id="g156"
           transform="translate(357.4224,373.1523)">
          <path
             d="m 0,0 c 4.266,-5.367 7.737,-11.312 11.09,-17.336 3.942,-7.086 7.219,-14.518 9.996,-22.201 2.546,-7.056 4.748,-14.22 6.213,-21.625 0.173,-0.834 0.38,-1.647 0.572,-2.484 0.383,-2.271 0.823,-4.52 0.356,-6.862 -0.958,-4.804 -3.207,-8.562 -7.503,-10.656 -3.599,-1.753 -6.723,0.08 -7.31,4.248 -1.548,10.972 -4.076,21.685 -7.928,32.019 -4.557,12.227 -10.53,23.59 -18.127,33.993 -0.344,0.477 -0.668,0.981 -1,1.473 0.823,2.903 2.526,5.25 4.165,7.663 0.919,1.356 2.342,1.133 3.528,1.531 C -4.03,0.403 -2.015,0.928 0,0"
             style="fill:#edae50;fill-opacity:1;fill-rule:nonzero;stroke:none"
             id="path158" />
        </g>
        <g
           id="g160"
           transform="translate(356.4585,373.3984)">
          <path
             d="m 0,0 c -9.406,0.808 -12.361,-9.062 -12.662,-9.68 -4.062,5.264 -8.348,10.303 -13.013,14.977 -9.48,9.528 -20.236,17.508 -31.918,23.676 -0.516,0.269 -1.012,0.549 -1.519,0.836 0.437,0.548 4.307,1.355 7.535,6.034 2.73,3.959 3.372,6.644 3.427,7.431 3.079,-1.23 5.767,-3.229 8.56,-5.004 4.828,-3.043 9.469,-6.409 13.896,-10.078 3.998,-3.343 7.878,-6.825 11.572,-10.566 2.534,-2.561 4.906,-5.272 7.298,-7.957 2.785,-3.123 5.593,-6.265 7.798,-9.92"
             style="fill:#fcd38c;fill-opacity:1;fill-rule:nonzero;stroke:none"
             id="path162" />
        </g>
        <g
           id="g164"
           transform="translate(600.4111,328.2217)">
          <path
             d="m 0,0 c -1.012,1.794 -2.547,3.107 -3.781,4.713 -6.648,8.622 -11.412,18.33 -14.767,28.855 -0.385,1.209 -0.737,2.431 -1.122,3.642 -0.161,0.512 -0.283,1.098 -0.971,1.078 -8.471,7.717 -18.696,12.02 -28.711,16.733 -15.129,7.109 -30.925,11.996 -46.905,16.302 -12.534,3.378 -25.231,5.882 -37.968,8.2 -1.158,0.209 -2.398,0.312 -3.198,1.462 -0.209,0.835 -0.209,1.687 -0.211,2.537 -0.017,10.075 -0.011,20.152 0.017,30.228 0,1.097 -0.32,2.358 0.795,3.17 2.51,-0.656 5.104,-0.656 7.652,-1.033 4.814,-0.71 9.658,-1.238 14.465,-2.012 6.224,-0.991 12.468,-1.872 18.642,-3.188 4.263,-0.915 8.549,-1.685 12.804,-2.651 4.986,-1.131 9.973,-2.276 14.897,-3.609 8.206,-2.218 16.413,-4.47 24.411,-7.463 3.184,-1.191 6.343,-2.475 9.567,-3.533 3.285,-1.075 5.861,-3.223 8.311,-5.639 5.328,-5.257 10.645,-10.529 15.788,-15.994 3.438,-3.657 6.894,-7.289 10.174,-11.113 1.42,-1.659 2.99,-3.173 4.469,-4.785 2.555,-2.791 4.933,-5.754 7.548,-8.486 2.102,-2.194 3.346,-4.958 3.5,-8.121 0.216,-4.444 0.082,-8.852 -0.978,-13.226 C 12.475,18.022 8.871,10.925 3.987,4.509 2.762,2.911 1.497,1.341 0,0"
             style="fill:#edae50;fill-opacity:1;fill-rule:nonzero;stroke:none"
             id="path166" />
        </g>
        <g
           id="g168"
           transform="translate(386.2998,422.1309)">
          <path
             d="m 0,0 -11.838,8.733 c -0.197,0.125 -0.382,0.267 -0.557,0.425 -0.716,0.731 -1.147,0.394 -1.599,-0.366 -0.671,-1.129 -1.423,-2.207 -2.146,-3.303 -1.711,-2.587 -3.386,-5.202 -5.144,-7.751 -1.307,-1.893 -2.965,-2.475 -4.794,-1.867 -2.738,0.915 -3.974,4.05 -2.619,6.766 0.426,0.856 0.993,1.635 1.515,2.432 6.02,9.181 12.045,18.358 18.074,27.534 0.379,0.609 0.795,1.189 1.249,1.737 1.571,1.8 3.954,2.081 5.756,0.732 0.877,-0.653 1.498,-1.627 1.742,-2.735 0.245,-1.108 0.095,-2.274 -0.418,-3.273 -0.534,-1.069 -1.222,-2.055 -1.875,-3.052 -1.869,-2.841 -3.758,-5.668 -5.638,-8.501 -0.75,-1.13 -0.767,-1.154 0.306,-1.949 C -3.95,12.57 0.09,9.588 4.135,6.613 Z"
             style="fill:#45423e;fill-opacity:1;fill-rule:nonzero;stroke:none"
             id="path170" />
        </g>
        <g
           id="g172"
           transform="translate(435.085,447.4106)">
          <path
             d="m 0,0 c 0.553,-0.415 0.518,-1.048 0.518,-1.646 0.012,-10.679 0.012,-21.354 0,-32.03 0.013,-0.366 -0.046,-0.728 -0.173,-1.067 -0.708,-0.915 -1.719,-0.878 -2.675,-0.881 -3.542,-0.018 -7.081,0.184 -10.618,0.256 -9.885,0.227 -19.771,0.09 -29.669,0.069 -0.688,0 -1.375,-0.04 -2.014,-0.365 -0.375,-0.184 -0.72,-0.446 -0.666,-0.95 0.053,-0.502 0.45,-0.658 0.85,-0.769 0.277,-0.076 0.561,-0.111 0.848,-0.105 4.853,0.113 9.703,-0.101 14.567,0.222 4.666,0.312 9.358,0.218 14.046,-0.082 4.044,-0.257 8.101,-0.367 12.153,-0.521 1.032,-0.039 2.064,0.036 2.981,-0.617 0.459,-2.447 1.179,-4.868 0.688,-7.414 -0.012,-0.234 -0.072,-0.461 -0.182,-0.663 -0.757,-0.958 -1.931,-0.978 -2.914,-1.414 -1.86,-0.822 -2.784,-2.165 -2.726,-4.348 0.265,-9.972 -0.474,-19.931 -0.345,-29.902 0.017,-1.155 0.039,-2.309 0.159,-3.459 0.26,-2.49 -0.388,-3.312 -2.751,-3.565 -0.626,-0.067 -1.255,-0.087 -1.891,-0.104 -1.099,-0.016 -2.198,-0.022 -3.291,0.069 -3.217,-0.534 -6.47,-0.571 -9.709,-0.806 -6.006,-0.43 -10.418,2.17 -13.544,7.68 -4.345,7.646 -8.727,15.265 -12.702,23.14 -1.781,3.533 -3.437,7.132 -5.314,10.618 -3.017,5.598 -3.051,11.071 0.476,16.43 1.538,2.334 2.658,4.966 4.496,7.081 1.019,2.548 2.669,4.67 4.151,6.906 3.401,5.336 6.993,10.526 10.859,15.492 1.179,1.516 2.821,2.451 4.335,3.538 2.006,0.578 9.284,0.732 11.13,0.796 2.096,0.075 4.197,0.029 6.296,0 C -11.632,1.582 -1.925,1.022 0,0"
             style="fill:#edae50;fill-opacity:1;fill-rule:nonzero;stroke:none"
             id="path174" />
        </g>
        <g
           id="g176"
           transform="translate(558.4424,344.7471)">
          <path
             d="m 0,0 c -0.649,0.381 -1.052,0.914 -1.008,1.753 0.132,2.559 -1.427,3.821 -3.331,4.765 -2.537,0.985 -21.869,2.917 -41.09,-4.184 -6.759,-2.328 -13.276,-5.233 -19.408,-9.077 -1.13,-0.71 -2.381,-1.191 -3.438,-2.042 -0.15,-0.117 -0.435,-0.041 -0.656,-0.056 -1.507,2.292 -2.505,4.889 -3.863,7.271 -2.102,3.686 -4.327,7.263 -7.17,10.372 -2.234,2.44 -4.763,4.31 -7.963,4.996 -0.881,-0.07 -1.011,0.612 -1.119,1.28 -0.095,0.783 -0.129,1.575 -0.1,2.366 0,5.532 -0.093,11.066 0.023,16.595 0.106,5.233 -0.455,10.44 -0.388,15.668 0.028,1.989 -0.859,3.339 -2.579,4.112 -0.683,0.309 -1.348,0.663 -1.991,1.061 -0.491,0.308 -1.023,0.624 -0.807,1.405 l 0.065,3.955 c 0.57,0.839 1.343,0.72 2.169,0.59 9.512,-1.523 18.961,-3.403 28.341,-5.642 11.284,-2.714 22.497,-5.692 33.48,-9.575 8.8,-3.109 17.512,-6.489 25.945,-10.624 4,-1.963 8.081,-3.765 11.734,-6.425 1.376,-1 2.482,-2.329 3.527,-3.713 2.488,-3.292 1.86,-7.114 1.627,-10.86 -0.069,-1.17 -0.594,-2.257 -0.687,-3.433 C 9.16,7.074 7.322,3.383 5.823,-0.469 5.518,-1.271 5.107,-1.566 4.251,-1.259 2.866,-0.759 1.424,-0.416 0,0"
             style="fill:#edae50;fill-opacity:1;fill-rule:nonzero;stroke:none"
             id="path178" />
        </g>
        <g
           id="g180"
           transform="translate(569.7676,355.2998)">
          <path
             d="m 0,0 c -0.479,0.979 -0.403,2.036 -0.225,3.039 0.375,2.117 0.244,4.245 0.244,6.37 0,2.083 -1.084,3.699 -2.271,5.184 -1.49,1.853 -3.314,3.37 -5.366,4.46 -9.603,5.19 -19.541,9.509 -29.713,13.259 -7.35,2.714 -14.766,5.19 -22.301,7.242 -9.524,2.592 -19.083,4.984 -28.76,6.948 -5.559,1.127 -11.16,1.972 -16.722,3.071 -0.335,0.066 -0.688,0.077 -1.023,0.116 v 4.013 c 3.419,-0.346 6.782,-1.069 10.155,-1.714 4.387,-0.839 8.766,-1.729 13.136,-2.674 4.588,-1 9.181,-1.97 13.717,-3.251 3.477,-0.981 6.994,-1.814 10.479,-2.78 8.527,-2.364 16.952,-5.077 25.273,-8.144 6.757,-2.491 13.294,-5.578 19.867,-8.562 6.254,-2.851 12.318,-6.151 18.153,-9.874 1.71,-1.089 3.284,-2.425 4.9,-3.677 0.571,-0.444 1.086,-0.978 0.465,-1.807 C 7.828,9.163 5.58,7.195 3.646,4.852 2.358,3.292 1.221,1.618 0,0"
             style="fill:#fcd38c;fill-opacity:1;fill-rule:nonzero;stroke:none"
             id="path182" />
        </g>
        <g
           id="g184"
           transform="translate(435.1113,412.6431)">
          <path
             d="m 0,0 0.011,-4.01 c -11.447,1 -32.785,1 -43.558,0.355 -0.817,0.043 -1.634,0.132 -2.441,0.268 -0.603,0.145 -1.53,0.971 -1.514,1.486 0.027,0.946 0.54,1.404 1.204,1.755 0.829,0.442 1.939,0.524 2.872,0.524 10.306,0 20.614,0.166 30.913,-0.098 C -8.345,0.174 -4.171,0.108 0,0"
             style="fill:#fcd38c;fill-opacity:1;fill-rule:nonzero;stroke:none"
             id="path186" />
        </g>
        <g
           id="g188"
           transform="translate(611.748,364.0088)">
          <path
             d="m 0,0 c 0.057,-3.935 -0.687,-7.553 -1.745,-11.107 -1.869,-6.291 -4.914,-11.906 -8.791,-17.028 -0.785,-1.04 -0.825,-1.043 -1.649,-0.016 -3.767,4.714 -6.783,9.937 -9.368,15.463 -1.941,4.152 -3.531,8.453 -4.956,12.827 -0.439,1.355 -0.388,1.597 0.887,2.294 4.462,2.434 9.139,4.165 14.125,4.921 2.271,0.347 4.565,0.34 6.837,0.636 0.228,0.022 0.459,0.028 0.687,0.015 2.161,-0.042 2.5,-0.335 3.311,-2.428 C 0.058,3.712 0.045,1.777 0,0"
             style="fill:#fefefe;fill-opacity:1;fill-rule:nonzero;stroke:none"
             id="path190" />
        </g>
        <g
           id="g192"
           transform="translate(463.4258,444.2456)">
          <path
             d="m 0,0 c 0,-11.624 0.128,-37.121 0.395,-44.272 -0.639,-0.865 -1.466,-0.549 -2.215,-0.322 -8.06,2.503 -16.175,2.131 -24.314,0.549 -0.686,-0.133 -1.353,-0.314 -1.932,0.284 l -0.044,-0.059 c -0.377,0.549 0,57.354 -0.048,60.991 -0.023,1.562 0.223,2.977 0.954,4.349 0.896,1.686 1.679,3.439 2.513,5.166 0.116,0.125 0.27,0.203 0.436,0.219 C -14.872,22.643 -7.121,17.696 -0.056,10.01 -0.159,7.232 -0.056,3.515 0,0"
             style="fill:#414141;fill-opacity:1;fill-rule:nonzero;stroke:none"
             id="path194" />
        </g>
        <g
           id="g196"
           transform="translate(439.1963,471.8174)">
          <path
             d="m 0,0 h -0.14 l -0.136,0.027 c 0.677,1.722 0.715,3.524 0.71,5.357 -0.022,5.471 0.062,10.944 0.012,16.414 -0.016,1.994 0.549,3.611 1.719,5.171 5.777,7.698 12.054,14.956 18.786,21.72 4.277,4.302 8.817,8.297 13.807,11.669 0.948,-0.241 0.542,-0.898 0.328,-1.402 -3.061,-7.176 -2.627,-14.701 -1.666,-22.169 0.423,-3.291 1.281,-6.684 3.853,-9.101 0.184,-0.153 0.306,-0.373 0.345,-0.617 0.038,-0.243 -0.01,-0.494 -0.136,-0.702 -5.81,-2.872 -10.373,-7.334 -14.224,-12.69 -0.571,-0.79 -0.99,-1.626 -0.85,-2.668 -0.257,-6.519 -0.2,-13.033 0.014,-23.76 -0.01,-0.115 -0.024,-0.23 -0.045,-0.344 -0.859,-0.62 -1.42,0.081 -1.949,0.56 -2.295,2.077 -4.525,4.233 -6.999,6.085 -2.704,2.029 -5.478,3.921 -8.476,5.428 C 3.374,-0.232 1.768,0.302 0,0"
             style="fill:#a19d98;fill-opacity:1;fill-rule:nonzero;stroke:none"
             id="path198" />
        </g>
        <g
           id="g200"
           transform="translate(477.6914,532.9771)">
          <path
             d="M 0,0 C 1.159,-0.616 1.752,-1.646 2.045,-2.968 2.793,-6.33 3.287,-9.75 3.522,-13.195 3.927,-19.087 3.123,-24.789 1.738,-30.445 1.45,-31.623 1.117,-32.784 0.384,-33.756 c -0.733,-0.132 -0.957,0.431 -1.253,0.97 -3.414,6.24 -4.034,13.048 -3.61,20.06 0.056,0.962 0.201,1.924 0.26,2.893 0.195,3.726 1.7,7.237 4.219,9.833"
             style="fill:#a19d98;fill-opacity:1;fill-rule:nonzero;stroke:none"
             id="path202" />
        </g>
        <g
           id="g204"
           transform="translate(467.1611,399.2715)">
          <path
             d="m 0,0 c 1.78,-0.833 2.655,-2.054 2.729,-4.321 0.36,-11.429 0.261,-22.858 0.288,-34.285 0,-0.733 0.074,-3.778 0.069,-4.625 -0.027,-4.743 -0.104,-9.486 -0.042,-14.225 0.022,-1.668 -0.63,-2.621 -1.983,-3.223 -11.32,-3.29 -26.022,-3.128 -36.329,0.367 -2.323,0.75 -2.942,1.672 -2.961,4.224 -0.023,3.342 0,6.687 0,10.032 0,1.397 0.024,2.796 0,4.195 -0.023,1.399 0.344,23.072 0.344,23.738 0,5.108 0.036,10.217 -0.011,15.325 -0.016,1.605 0.539,2.571 1.949,3.242 C -19.576,5.944 -10.983,4.344 0,0"
             style="fill:#a19d98;fill-opacity:1;fill-rule:nonzero;stroke:none"
             id="path206" />
        </g>
        <g
           id="g208"
           transform="translate(432.3232,369.1738)">
          <path
             d="m 0,0 v 24.652 c 0,0.426 -0.013,0.853 0,1.281 0.035,1.692 0.171,1.919 1.703,2.514 5.756,2.349 22.588,4.572 31.571,-1.733 1.418,-0.794 1.646,-1.605 1.706,-3.522 0.233,-4.317 -0.169,-36.391 -0.157,-48.745 v -0.732 c -0.04,-1.761 -0.153,-1.845 -1.834,-2.216 -10.478,-2.316 -20.898,-2.011 -31.275,0.732 -1.535,0.404 -1.617,0.445 -1.621,2.213 -0.013,5.661 -0.013,11.324 0,16.983 v 8.585 z"
             style="fill:#45423d;fill-opacity:1;fill-rule:nonzero;stroke:none"
             id="path210" />
        </g>
        <g
           id="g212"
           transform="translate(438.8086,471.4653)">
          <path
             d="m 0,0 c 0.2,1.563 1.1,1.726 2.828,1.295 2.078,-0.658 4.067,-1.603 5.914,-2.811 4.115,-2.611 8.054,-5.486 11.51,-9.052 0.772,-0.797 1.668,-1.463 2.508,-2.182 0.118,-0.525 0.384,-0.999 0.763,-1.358 1.091,-1.044 1.24,-2.251 1.017,-3.774 -1.813,0.274 -2.833,1.426 -3.983,2.776 -3.121,3.657 -6.77,6.618 -10.638,9.313 -2.384,1.66 -6.031,3.474 -8.68,4.597 C 0.332,-0.812 -0.104,-0.836 0,0"
             style="fill:#dcf9fb;fill-opacity:1;fill-rule:nonzero;stroke:none"
             id="path214" />
        </g>
        <g
           id="g216"
           transform="translate(477.7158,532.9775)">
          <path
             d="m 0,0 c 0.61,-0.355 1.003,-0.518 -0.571,-1.999 -1.991,-1.898 -3.309,-6.684 -3.173,-14.532 0.129,-5.202 0.191,-9.835 4.126,-17.226 -0.332,-0.549 -0.769,-0.953 -1.407,-1.035 -6.66,6.965 -6.018,28.399 -2.727,33.991 C -2.389,0.7 -1.591,0.87 0,0"
             style="fill:#dcf9fb;fill-opacity:1;fill-rule:nonzero;stroke:none"
             id="path218" />
        </g>
      </g>
    </g>
  </g>
</svg>
