<svg clip-rule="evenodd" fill-rule="evenodd" stroke-linejoin="round" stroke-miterlimit="2" viewBox="0 0 560 400" xmlns="http://www.w3.org/2000/svg" xmlns:xlink="http://www.w3.org/1999/xlink"><linearGradient id="a"><stop offset="0" stop-color="#174e5b"/><stop offset=".07" stop-color="#195a6c"/><stop offset=".21" stop-color="#1e779a"/><stop offset=".4" stop-color="#27a7e3"/><stop offset=".47" stop-color="#2abaff"/><stop offset=".7" stop-color="#1ddaf0"/><stop offset="1" stop-color="#0effe0"/></linearGradient><linearGradient id="b" gradientTransform="matrix(14.979 -25.9463 25.9463 14.979 7.6651 36.2297)" gradientUnits="userSpaceOnUse" x1="0" x2="1" xlink:href="#a" y1="0" y2="0"/><linearGradient id="c" gradientTransform="matrix(-14.9802 25.9443 -25.9443 -14.9802 33.3377 3.7711)" gradientUnits="userSpaceOnUse" x1="0" x2="1" xlink:href="#a" y1="0" y2="0"/><g fill-rule="nonzero" transform="matrix(7.30943 0 0 7.30943 129.791 53.8113)"><path d="m25.9 38.9c-.1-.1-.2-.2-.3-.2-2.3-.5-4.6-1.3-6.6-2.5-4.2-2.5-7-6.2-7.1-10.5 0-1.6.3-3.2 1-4.7.4-1 2.8-4.4 3.1-5 1.6-2.5 1.1-2.3-1.2-5.4l-3.2-4.7-2.1-3.2c-1.2.8-2.4 1.8-3.5 2.8-2.2 2.2-3.9 5-4.9 8-1 3-1.3 6.2-.9 9.3s1.6 6.1 3.4 8.7 4.2 4.8 6.9 6.3c-7.1-5.2-10.4-13.1-7.7-21 .7-2.1 1.8-4.1 3.2-5.9l2.3 3.4c.1.2.2.4.2.7 0 .2-.1.5-.2.7-1.1 1.4-2 2.9-2.6 4.6-3 8.7 5.1 17.7 13.6 19.2 1.6.3 4.6.6 6.2.2.1 0 .2-.1.2-.1.1-.1.1-.1.1-.2v-.3c.2 0 .2-.1.1-.2z" fill="url(#b)"/><path d="m15.1 1.1c.1.1.2.2.3.2 2.3.5 4.6 1.3 6.6 2.5 4.2 2.5 7 6.2 7.1 10.5 0 1.6-.3 3.2-1 4.7-.4 1-2.8 4.4-3.1 5-1.6 2.5-1.1 2.3 1.2 5.4l3.2 4.7 2.2 3.2c1.2-.8 2.4-1.8 3.5-2.8 2.2-2.2 3.9-5 4.9-8s1.3-6.2.9-9.3-1.6-6.1-3.4-8.7-4.2-4.8-6.9-6.3c7.1 5.2 10.4 13.1 7.6 21-.7 2.1-1.8 4.1-3.2 5.9l-2.3-3.4c-.1-.2-.2-.4-.2-.7 0-.2.1-.5.2-.7 1.1-1.4 2-2.9 2.6-4.6 3-8.7-5.1-17.7-13.6-19.2-1.6-.3-4.6-.6-6.2-.2-.1 0-.2.1-.2.1-.2 0-.3.1-.3.2v.3s0 .1.1.2z" fill="url(#c)"/></g></svg>