<?xml version="1.0" standalone="no"?>
<!DOCTYPE svg PUBLIC "-//W3C//DTD SVG 20010904//EN"
 "http://www.w3.org/TR/2001/REC-SVG-20010904/DTD/svg10.dtd">
<svg version="1.0" xmlns="http://www.w3.org/2000/svg"
 width="500.000000pt" height="500.000000pt" viewBox="0 0 500.000000 500.000000"
 preserveAspectRatio="xMidYMid meet">
<metadata>
Created by potrace 1.16, written by Peter Selinger 2001-2019
</metadata>
<g transform="translate(0.000000,500.000000) scale(0.100000,-0.100000)"
fill="#000000" stroke="none">
<path d="M0 2500 l0 -2500 2500 0 2500 0 0 2500 0 2500 -2500 0 -2500 0 0
-2500z m2802 1471 c283 -61 524 -190 733 -392 265 -257 413 -563 456 -939 10
-94 7 -296 -6 -308 -3 -3 -32 16 -65 42 -119 94 -299 171 -446 191 l-52 7 -16
89 c-66 361 -323 638 -681 735 -92 25 -304 30 -406 9 -338 -68 -602 -312 -706
-652 -24 -80 -27 -102 -27 -253 0 -151 3 -172 28 -255 106 -350 387 -599 739
-655 l75 -12 12 -75 c23 -146 87 -294 178 -415 29 -39 51 -72 49 -74 -2 -3
-53 -7 -113 -10 -174 -10 -397 28 -579 97 -200 76 -376 190 -530 344 -255 255
-400 568 -436 941 -24 243 28 519 142 763 88 188 272 414 442 545 191 146 438
251 682 291 128 21 398 13 527 -14z m-123 -956 c163 -39 315 -160 386 -308 20
-43 35 -81 32 -83 -3 -3 -22 -1 -44 5 -62 18 -200 13 -278 -8 -58 -16 -72 -17
-85 -7 -85 75 -220 67 -298 -18 -72 -78 -78 -180 -16 -271 l26 -38 -18 -61
c-20 -70 -24 -220 -7 -278 15 -50 3 -50 -89 -1 -194 102 -308 290 -308 506 0
166 50 289 164 403 145 146 342 204 535 159z m333 -741 c18 -9 49 -34 68 -55
l35 -37 60 20 c83 28 212 34 299 14 207 -49 379 -217 431 -421 32 -127 15
-278 -47 -405 -38 -78 -147 -191 -229 -238 -72 -41 -193 -72 -278 -72 -234 1
-458 157 -540 376 -41 107 -44 277 -7 381 14 39 14 39 -20 61 -114 74 -119
264 -9 348 73 55 163 66 237 28z"/>
<path d="M3201 1783 l-140 -168 104 -3 105 -3 0 -119 0 -120 75 0 75 0 0 120
0 119 105 3 104 3 -140 168 c-76 92 -141 167 -144 167 -3 0 -68 -75 -144 -167z"/>
</g>
</svg>
