<?xml version="1.0" standalone="no"?>
<!DOCTYPE svg PUBLIC "-//W3C//DTD SVG 20010904//EN"
 "http://www.w3.org/TR/2001/REC-SVG-20010904/DTD/svg10.dtd">
<svg version="1.0" xmlns="http://www.w3.org/2000/svg"
 width="400.000000pt" height="400.000000pt" viewBox="0 0 400.000000 400.000000"
 preserveAspectRatio="xMidYMid meet">
<metadata>
Created by potrace 1.16, written by Peter Selinger 2001-2019
</metadata>
<g transform="translate(0.000000,400.000000) scale(0.100000,-0.100000)"
fill="#000000" stroke="none">
<path d="M1 3083 c1 -505 4 -904 6 -888 53 441 209 800 488 1122 330 381 801
624 1315 676 19 2 -380 5 -887 5 l-923 2 1 -917z"/>
<path d="M2220 3989 c488 -52 980 -312 1298 -688 89 -105 92 -110 154 -206
170 -259 285 -584 317 -890 5 -48 9 293 10 858 l1 937 -927 -1 c-527 -1 -896
-5 -853 -10z"/>
<path d="M1260 3549 c-179 -86 -302 -172 -449 -313 -330 -320 -508 -718 -528
-1183 -12 -287 41 -546 165 -801 142 -295 351 -532 618 -705 310 -200 708
-302 1057 -268 321 31 583 122 843 293 81 53 146 108 253 215 79 79 141 147
137 150 -4 4 -19 -8 -34 -27 -39 -51 -168 -179 -237 -237 -70 -59 -212 -153
-230 -153 -8 0 -15 -4 -17 -9 -3 -10 -178 -94 -218 -105 -14 -4 -34 -11 -45
-16 -38 -17 -128 -40 -136 -34 -5 3 -9 0 -9 -6 0 -7 -6 -10 -12 -7 -7 2 -31
-2 -53 -10 -84 -29 -437 -39 -595 -16 -112 17 -230 45 -230 55 0 4 -8 8 -17 8
-26 0 -162 45 -175 58 -6 6 -17 8 -24 5 -8 -3 -14 0 -14 7 0 7 -7 10 -17 6
-10 -4 -14 -4 -11 0 7 6 -55 43 -142 86 -25 12 -47 24 -50 28 -3 3 -50 39
-104 80 -55 41 -118 93 -140 115 -61 60 -158 167 -186 205 -14 19 -33 42 -42
52 -10 10 -18 20 -18 23 0 2 -16 29 -35 59 -19 30 -35 59 -35 65 0 5 -3 11 -7
13 -9 4 -51 89 -82 166 -11 28 -30 74 -41 101 -30 73 -67 231 -86 366 -20 139
-14 360 11 485 9 41 18 87 20 102 5 28 68 223 87 268 31 72 157 297 183 327 5
6 30 37 55 70 43 55 184 201 225 233 11 8 42 33 68 54 70 57 184 127 303 186
57 28 104 53 104 56 0 6 2 7 -110 -47z"/>
<path d="M3085 3580 c3 -5 12 -10 19 -10 7 0 32 -21 57 -46 94 -97 102 -105
115 -100 9 3 11 0 7 -11 -4 -11 -2 -14 5 -9 8 5 10 2 6 -8 -4 -11 2 -19 20
-26 14 -5 26 -16 26 -23 0 -7 14 -23 30 -35 17 -13 30 -28 30 -35 0 -7 21 -30
46 -52 25 -22 52 -53 60 -68 9 -16 20 -25 26 -21 6 4 8 3 5 -3 -8 -12 17 -36
26 -26 4 3 7 1 7 -6 0 -6 11 -24 24 -38 13 -14 22 -33 19 -42 -4 -13 -2 -13 7
1 9 15 0 33 -52 105 -35 49 -69 88 -75 88 -6 0 -15 4 -20 9 -5 5 -3 6 5 2 19
-11 14 9 -6 27 -10 10 -22 14 -27 10 -4 -5 -5 -2 0 6 9 16 -160 185 -176 176
-5 -4 -8 -1 -7 5 2 7 -34 41 -80 76 -77 59 -112 79 -97 54z"/>
<path d="M1907 3344 c-309 -56 -596 -278 -732 -567 -75 -156 -74 -144 -75
-977 -2 -834 -6 -789 71 -907 23 -34 70 -90 106 -123 108 -102 200 -135 368
-133 161 1 276 53 389 174 88 96 116 191 131 450 l7 125 77 12 c354 52 667
322 779 672 51 160 60 356 24 517 -103 455 -509 777 -972 772 -52 -1 -130 -8
-173 -15z m331 -289 c223 -53 407 -227 488 -465 29 -86 27 -301 -4 -394 -84
-253 -282 -421 -546 -467 -72 -12 -212 -7 -227 8 -6 6 8 91 31 202 22 106 40
197 40 201 0 4 28 10 63 12 148 10 242 109 242 253 -1 85 -24 136 -87 189
-139 119 -351 56 -404 -120 -11 -39 -14 -170 -14 -729 0 -483 -3 -692 -11
-716 -36 -107 -150 -168 -257 -138 -60 17 -127 82 -142 138 -7 29 -10 263 -8
773 4 716 4 734 25 795 58 171 192 328 343 401 47 23 110 48 140 56 72 19 248
20 328 1z"/>
<path d="M3987 1793 c-28 -356 -192 -751 -440 -1058 -320 -396 -824 -671
-1329 -724 -53 -5 260 -9 850 -10 l932 -1 0 935 c0 514 -2 935 -4 935 -1 0 -6
-35 -9 -77z"/>
<path d="M1 923 l-1 -923 928 1 c576 1 899 5 852 10 -677 78 -1279 500 -1573
1102 -97 197 -173 452 -195 652 -6 53 -10 -234 -11 -842z"/>
</g>
</svg>
