<?xml version="1.0" standalone="no"?>
<!DOCTYPE svg PUBLIC "-//W3C//DTD SVG 20010904//EN"
 "http://www.w3.org/TR/2001/REC-SVG-20010904/DTD/svg10.dtd">
<svg version="1.0" xmlns="http://www.w3.org/2000/svg"
 width="250.000000pt" height="250.000000pt" viewBox="0 0 250.000000 250.000000"
 preserveAspectRatio="xMidYMid meet">
<metadata>
Created by potrace 1.16, written by Peter Selinger 2001-2019
</metadata>
<g transform="translate(0.000000,250.000000) scale(0.100000,-0.100000)"
fill="#000000" stroke="none">
<path d="M1090 2470 c0 -25 -4 -30 -23 -30 -46 0 -205 -52 -302 -100 -247
-120 -409 -269 -551 -507 -74 -122 -154 -331 -154 -400 0 -19 -6 -23 -30 -23
l-30 0 0 -160 0 -160 28 0 c26 0 28 -4 45 -81 35 -155 124 -339 233 -480 56
-73 182 -198 237 -235 23 -16 44 -31 47 -34 10 -11 76 -49 140 -80 36 -17 78
-38 93 -46 16 -8 35 -14 43 -14 8 0 28 -7 44 -15 32 -17 206 -45 275 -45 43 0
45 -1 45 -30 0 -23 4 -30 20 -30 15 0 20 7 20 28 l0 29 103 11 c155 16 231 33
302 66 162 74 248 127 341 208 202 175 356 426 411 668 17 76 19 80 45 80 l28
0 0 160 0 160 -29 0 c-26 0 -29 4 -34 43 -13 96 -92 292 -162 402 -126 198
-252 322 -441 434 -119 70 -335 151 -404 151 -16 0 -20 7 -20 30 l0 30 -160 0
-160 0 0 -30z m501 -478 c151 -87 313 -180 362 -208 l87 -49 -2 -474 -3 -473
-360 -209 c-330 -192 -364 -209 -407 -209 -50 0 -86 19 -631 338 l-147 87 2
469 3 470 360 207 c335 193 363 208 411 208 47 1 66 -8 325 -157z"/>
<path d="M1047 1623 l-217 -126 0 -231 0 -231 62 -35 c35 -19 66 -36 70 -38 4
-2 9 108 10 245 l3 248 115 67 c107 63 119 67 175 67 54 0 69 -5 153 -53 l94
-54 54 31 c29 17 52 32 51 32 -10 7 -317 184 -332 193 -18 9 -52 -8 -238 -115z"/>
</g>
</svg>
