<?xml version="1.0" standalone="no"?>
<!DOCTYPE svg PUBLIC "-//W3C//DTD SVG 20010904//EN"
 "http://www.w3.org/TR/2001/REC-SVG-20010904/DTD/svg10.dtd">
<svg version="1.0" xmlns="http://www.w3.org/2000/svg"
 width="64.000000pt" height="64.000000pt" viewBox="0 0 64.000000 64.000000"
 preserveAspectRatio="xMidYMid meet">

<g transform="translate(0.000000,64.000000) scale(0.100000,-0.100000)"
fill="#000000" stroke="none">
<path d="M76 404 c-13 -100 -11 -110 39 -128 40 -16 43 -19 32 -37 -10 -17 -9
-23 12 -40 29 -24 24 -24 -34 1 -58 25 -55 25 -55 -3 0 -21 15 -29 122 -72 67
-27 127 -48 133 -48 20 0 146 53 159 66 26 28 16 36 -25 21 -61 -21 -61 -17 1
14 30 15 56 34 58 43 5 26 -37 38 -80 23 -26 -9 -37 -10 -35 -2 1 6 -8 17 -20
23 -21 11 -17 14 56 51 48 24 77 44 74 52 -7 18 -20 15 -108 -23 -89 -39 -115
-38 -115 4 0 23 8 31 51 51 28 14 46 26 40 28 -6 2 -8 8 -5 14 8 12 -22 4 -92
-27 l-51 -22 -57 23 c-98 40 -92 40 -100 -12z m61 -34 c3 -12 21 -27 41 -36
19 -8 33 -17 30 -20 -12 -11 -98 40 -98 58 0 25 21 23 27 -2z"/>
</g>
</svg>
