<?xml version="1.0" standalone="no"?>
<!DOCTYPE svg PUBLIC "-//W3C//DTD SVG 20010904//EN"
 "http://www.w3.org/TR/2001/REC-SVG-20010904/DTD/svg10.dtd">
<svg version="1.0" xmlns="http://www.w3.org/2000/svg"
 width="32.000000pt" height="32.000000pt" viewBox="0 0 32.000000 32.000000"
 preserveAspectRatio="xMidYMid meet">

<g transform="translate(0.000000,32.000000) scale(0.100000,-0.100000)"
fill="#000000" stroke="none">
<path d="M0 253 l0 -67 23 44 c16 33 34 51 67 68 l44 22 -67 0 -67 0 0 -67z"/>
<path d="M232 300 c34 -18 68 -56 81 -90 3 -8 6 13 6 48 l1 62 -62 0 -63 -1
37 -19z"/>
<path d="M115 284 c-22 -7 -41 -14 -42 -14 -9 -1 -42 -62 -48 -87 -6 -28 -4
-33 12 -33 11 0 30 11 43 25 13 14 28 25 34 25 5 0 -2 -13 -17 -28 -59 -62
-14 -72 52 -11 57 53 66 42 12 -16 -41 -45 -52 -75 -28 -75 8 0 22 9 32 20 10
11 23 20 28 20 6 0 -1 -13 -16 -28 -15 -15 -27 -36 -27 -46 0 -15 5 -17 32
-12 71 14 112 63 112 135 0 97 -87 158 -179 125z m119 -50 c20 -20 20 -30 0
-38 -23 -9 -43 11 -37 34 6 24 16 25 37 4z m-81 -13 c5 -22 -15 -35 -31 -19
-13 13 -4 38 13 38 7 0 15 -9 18 -19z m87 -85 c0 -8 -4 -17 -9 -20 -15 -10
-40 5 -34 20 7 18 43 18 43 0z"/>
<path d="M0 63 l0 -63 63 0 62 0 -32 16 c-37 18 -56 38 -77 79 l-16 30 0 -62z"/>
<path d="M310 106 c0 -22 -51 -77 -85 -92 -29 -13 -28 -13 33 -14 l62 0 0 60
c0 33 -2 60 -5 60 -3 0 -5 -6 -5 -14z"/>
</g>
</svg>
