<?xml version="1.0" standalone="no"?>
<!DOCTYPE svg PUBLIC "-//W3C//DTD SVG 20010904//EN"
 "http://www.w3.org/TR/2001/REC-SVG-20010904/DTD/svg10.dtd">
<svg version="1.0" xmlns="http://www.w3.org/2000/svg"
 width="225.000000pt" height="225.000000pt" viewBox="0 0 225.000000 225.000000"
 preserveAspectRatio="xMidYMid meet">
<metadata>
Created by potrace 1.16, written by Peter Selinger 2001-2019
</metadata>
<g transform="translate(0.000000,225.000000) scale(0.100000,-0.100000)"
fill="#000000" stroke="none">
<path d="M990 2239 c-159 -18 -360 -94 -502 -190 -87 -59 -218 -188 -278 -275
-235 -340 -271 -765 -95 -1131 58 -122 112 -200 207 -299 157 -163 351 -269
587 -320 93 -20 318 -23 411 -5 470 91 820 441 911 911 16 84 16 306 0 390
-57 297 -231 567 -469 729 -147 100 -340 171 -515 190 -108 12 -149 12 -257 0z
m530 -779 l0 -100 -135 0 -135 0 0 -345 0 -345 -125 0 -125 0 0 345 0 345
-135 0 -135 0 0 100 0 100 395 0 395 0 0 -100z"/>
</g>
</svg>
