<?xml version="1.0" standalone="no"?>
<!DOCTYPE svg PUBLIC "-//W3C//DTD SVG 20010904//EN"
 "http://www.w3.org/TR/2001/REC-SVG-20010904/DTD/svg10.dtd">
<svg version="1.0" xmlns="http://www.w3.org/2000/svg"
 width="250.000000pt" height="250.000000pt" viewBox="0 0 250.000000 250.000000"
 preserveAspectRatio="xMidYMid meet">
<metadata>
Created by potrace 1.16, written by Peter Selinger 2001-2019
</metadata>
<g transform="translate(0.000000,250.000000) scale(0.100000,-0.100000)"
fill="#000000" stroke="none">
<path d="M1040 2489 c0 -7 3 -9 6 -6 4 4 14 -1 23 -11 9 -9 28 -23 44 -31 15
-8 27 -18 27 -23 0 -4 6 -8 14 -8 7 0 33 -18 56 -40 23 -22 44 -40 46 -40 3 0
38 -33 79 -72 84 -83 93 -91 122 -107 26 -13 99 -15 107 -2 3 5 20 11 38 14
18 3 62 12 98 22 36 9 91 19 123 22 31 3 60 9 63 14 7 13 421 12 429 -1 8 -13
85 -13 105 0 12 7 12 12 0 34 -7 14 -21 26 -31 26 -10 0 -34 9 -54 20 -20 11
-44 20 -55 20 -11 0 -20 5 -20 10 0 6 -9 10 -19 10 -11 0 -23 5 -26 10 -3 6
-16 10 -29 10 -12 0 -26 3 -30 7 -8 9 -90 31 -144 40 -18 3 -35 9 -38 14 -3 5
-18 9 -33 9 -15 0 -31 4 -36 9 -12 10 -118 31 -161 31 -18 0 -34 6 -36 12 -7
19 -668 26 -668 7z"/>
<path d="M775 2480 c-3 -5 -23 -10 -43 -10 -40 -1 -127 -21 -138 -33 -4 -4
-20 -7 -35 -7 -15 0 -31 -4 -34 -10 -3 -5 -16 -10 -27 -10 -24 0 -182 -46
-210 -61 -10 -5 -25 -9 -33 -9 -8 0 -15 -4 -15 -10 0 -5 -9 -10 -20 -10 -11 0
-35 -9 -55 -20 -20 -11 -42 -20 -51 -20 -8 0 -12 -4 -9 -10 3 -5 -3 -10 -13
-10 -25 0 -74 -25 -65 -33 3 -4 1 -7 -5 -7 -15 0 -17 -346 -2 -355 6 -3 10
-39 10 -80 0 -41 5 -77 10 -80 6 -3 10 -26 10 -50 0 -24 5 -47 10 -50 6 -3 10
-18 10 -32 0 -15 4 -40 9 -57 5 -17 17 -60 26 -96 9 -36 21 -73 26 -82 5 -10
9 -29 9 -43 0 -14 5 -25 10 -25 6 0 10 -11 10 -25 0 -14 5 -25 10 -25 6 0 10
-11 10 -25 0 -14 5 -25 10 -25 6 0 10 -7 10 -15 0 -23 57 -20 65 4 7 24 281
302 289 294 3 -4 6 2 6 12 0 10 3 16 6 12 4 -3 24 12 44 33 21 22 42 40 47 40
5 0 31 23 57 50 26 28 52 50 57 50 5 0 28 18 50 40 23 22 46 40 51 40 5 0 24
16 44 35 19 19 39 35 44 35 5 0 20 11 33 24 14 14 28 22 31 19 3 -4 6 -1 6 5
0 7 6 12 14 12 7 0 34 20 60 44 38 37 46 51 46 81 0 46 -44 141 -82 176 -10 9
-18 24 -18 33 0 9 -4 16 -10 16 -5 0 -10 9 -10 21 0 11 -4 17 -10 14 -5 -3
-10 1 -10 9 0 9 -4 16 -10 16 -5 0 -10 7 -10 15 0 8 -4 15 -10 15 -5 0 -10 6
-10 13 0 7 -9 19 -20 27 -11 8 -20 20 -20 27 0 7 -4 13 -10 13 -5 0 -10 5 -10
10 0 6 -20 31 -45 55 -43 43 -77 56 -90 35z"/>
<path d="M2305 2130 c-3 -5 -17 -10 -31 -10 -13 0 -32 -4 -42 -9 -9 -5 -38
-15 -64 -23 -27 -7 -48 -16 -48 -20 0 -4 -9 -8 -20 -8 -11 0 -20 -4 -20 -10 0
-5 -8 -10 -18 -10 -11 0 -43 -13 -73 -30 -30 -16 -62 -30 -71 -30 -10 0 -18
-4 -18 -9 0 -5 -8 -12 -18 -15 -21 -7 -130 -76 -119 -76 4 0 -1 -10 -13 -22
-28 -30 -28 -142 0 -200 11 -23 23 -56 26 -75 3 -18 10 -36 15 -39 5 -3 9 -14
9 -25 0 -10 5 -19 10 -19 6 0 10 -13 10 -30 0 -16 5 -30 10 -30 6 0 10 -9 10
-20 0 -11 5 -20 10 -20 6 0 10 -16 10 -36 0 -21 4 -33 10 -29 6 4 10 -7 10
-25 0 -18 4 -29 10 -25 6 4 10 -8 10 -30 0 -22 4 -34 10 -30 6 4 10 -8 10 -29
0 -20 5 -36 10 -36 6 0 10 -11 10 -25 0 -14 5 -25 10 -25 6 0 10 -16 10 -35 0
-19 5 -35 10 -35 6 0 10 -13 10 -30 0 -16 5 -30 10 -30 6 0 10 -16 10 -35 0
-19 5 -35 10 -35 6 0 10 -18 10 -39 0 -22 5 -43 10 -46 6 -3 10 -22 10 -41 0
-29 3 -34 24 -34 16 0 27 7 31 20 3 11 11 20 16 20 5 0 9 7 9 15 0 9 9 25 20
37 11 12 20 28 20 35 0 7 5 13 10 13 6 0 10 9 10 21 0 11 5 17 10 14 6 -3 10
3 10 14 0 12 5 21 10 21 6 0 10 9 10 20 0 11 5 20 10 20 6 0 10 9 10 20 0 11
5 20 10 20 6 0 10 9 10 20 0 11 5 20 10 20 6 0 10 11 10 25 0 14 5 25 10 25 6
0 10 9 10 20 0 11 5 20 10 20 6 0 10 11 10 25 0 14 5 25 10 25 6 0 10 11 10
24 0 14 5 28 10 31 6 3 10 16 10 29 0 12 4 26 8 32 5 5 21 63 36 129 16 66 32
128 37 137 5 10 9 36 9 57 0 22 5 43 10 46 6 3 10 39 10 80 0 41 5 77 10 80 6
4 10 62 10 141 l0 134 -89 0 c-50 0 -93 -4 -96 -10z"/>
<path d="M1273 1633 c-18 -2 -33 -8 -33 -14 0 -5 -9 -9 -20 -9 -11 0 -34 -9
-52 -20 -18 -11 -41 -20 -50 -20 -10 0 -18 -4 -18 -10 0 -5 -7 -10 -16 -10
-18 0 -117 -51 -122 -62 -2 -5 -12 -8 -23 -8 -10 0 -19 -4 -19 -10 0 -5 -7
-10 -15 -10 -8 0 -15 -4 -15 -10 0 -5 -9 -10 -20 -10 -11 0 -20 -4 -20 -10 0
-5 -8 -10 -18 -10 -10 0 -24 -9 -32 -20 -8 -11 -22 -20 -32 -20 -10 0 -18 -4
-18 -10 0 -5 -9 -10 -20 -10 -11 0 -20 -4 -20 -10 0 -5 -6 -10 -13 -10 -7 0
-22 -8 -33 -17 -10 -10 -31 -24 -46 -32 -16 -8 -28 -18 -28 -23 0 -4 -6 -8
-13 -8 -7 0 -23 -9 -35 -20 -12 -11 -26 -20 -32 -20 -5 0 -10 -4 -10 -8 0 -5
-12 -15 -27 -23 -16 -8 -35 -22 -44 -31 -9 -10 -20 -18 -25 -18 -5 0 -21 -10
-36 -23 -14 -12 -36 -29 -48 -37 -45 -31 -60 -48 -60 -69 0 -12 4 -19 10 -16
6 3 10 -3 10 -14 0 -12 5 -21 10 -21 6 0 10 -9 10 -21 0 -11 5 -17 10 -14 6 3
10 -3 10 -14 0 -12 5 -21 10 -21 6 0 10 -6 10 -13 0 -7 9 -23 20 -35 11 -12
20 -28 20 -36 0 -8 4 -16 9 -18 5 -1 17 -17 27 -35 20 -32 123 -179 152 -215
47 -58 362 -365 362 -353 0 3 17 -11 37 -30 20 -19 45 -38 55 -41 10 -3 18 -9
18 -13 0 -5 14 -14 30 -21 17 -7 30 -16 30 -21 0 -4 8 -10 19 -14 10 -3 29
-14 41 -25 33 -29 147 -29 180 0 12 11 31 22 41 25 11 4 19 10 19 14 0 5 14
14 30 21 17 7 30 16 30 21 0 4 8 10 18 13 10 3 35 22 55 41 20 19 37 33 37 30
0 -16 324 305 360 355 13 19 30 41 37 48 7 7 13 18 13 24 0 10 -23 67 -41 100
-5 10 -9 25 -9 33 0 8 -4 15 -10 15 -5 0 -10 9 -10 20 0 11 -4 20 -10 20 -5 0
-10 11 -10 25 0 14 -4 25 -10 25 -5 0 -10 9 -10 21 0 11 -4 17 -10 14 -6 -4
-10 5 -10 19 0 14 -4 26 -10 26 -5 0 -10 9 -10 21 0 11 -5 17 -10 14 -6 -4
-10 5 -10 19 0 14 -4 26 -10 26 -5 0 -10 7 -10 15 0 8 -4 15 -10 15 -5 0 -10
9 -10 20 0 11 -4 20 -10 20 -5 0 -10 7 -10 15 0 8 -4 15 -8 15 -5 0 -14 16
-22 35 -8 19 -17 35 -22 35 -4 0 -8 7 -8 15 0 8 -4 15 -10 15 -5 0 -10 4 -10
9 0 12 -43 83 -127 214 -35 53 -63 99 -63 102 0 3 -20 25 -43 49 -46 45 -89
58 -164 49z"/>
</g>
</svg>
