<?xml version="1.0" standalone="no"?>
<!DOCTYPE svg PUBLIC "-//W3C//DTD SVG 20010904//EN"
 "http://www.w3.org/TR/2001/REC-SVG-20010904/DTD/svg10.dtd">
<svg version="1.0" xmlns="http://www.w3.org/2000/svg"
 width="225.000000pt" height="225.000000pt" viewBox="0 0 225.000000 225.000000"
 preserveAspectRatio="xMidYMid meet">
<metadata>
Created by potrace 1.16, written by Peter Selinger 2001-2019
</metadata>
<g transform="translate(0.000000,225.000000) scale(0.100000,-0.100000)"
fill="#000000" stroke="none">
<path d="M975 2239 c-109 -14 -241 -55 -350 -109 -551 -274 -779 -941 -510
-1496 112 -231 324 -436 556 -536 427 -184 906 -96 1237 226 407 395 453 1031
106 1486 -59 78 -187 197 -271 253 -222 148 -495 210 -768 176z m263 -39 c45
-5 113 -17 150 -26 144 -36 339 -138 439 -229 l48 -44 -42 -42 -41 -42 -49 41
c-131 111 -315 193 -493 219 -260 38 -552 -50 -756 -229 l-35 -31 -44 43 -43
43 45 38 c169 147 352 225 613 263 50 7 127 6 208 -4z m-138 -210 l0 -59 -37
-6 c-237 -37 -366 -97 -504 -234 -137 -138 -197 -267 -234 -503 l-6 -38 -61 0
-61 0 7 63 c44 396 316 708 701 805 82 21 119 28 168 31 27 1 27 0 27 -59z
m235 34 c177 -44 302 -113 429 -233 157 -151 258 -356 281 -574 l7 -67 -60 0
-61 0 -6 38 c-26 168 -52 247 -115 352 -126 211 -336 341 -622 385 l-38 6 0
61 0 61 63 -7 c34 -4 89 -14 122 -22z m-5 -154 c263 -74 467 -280 542 -547 28
-100 30 -274 5 -378 -24 -94 -95 -237 -155 -309 -102 -122 -248 -217 -399
-258 -113 -30 -289 -30 -397 1 -222 62 -391 202 -492 406 -73 149 -97 292 -75
445 42 282 222 510 486 615 148 58 331 68 485 25z m-946 -138 c-144 -178 -215
-379 -215 -607 0 -228 71 -429 214 -607 l49 -60 -39 -42 c-21 -22 -39 -43 -41
-45 -4 -7 -41 38 -103 124 -192 265 -254 602 -168 915 38 139 134 317 233 431
l31 36 44 -42 43 -42 -48 -61z m1651 -33 c218 -360 226 -761 24 -1115 -43 -75
-142 -204 -157 -204 -4 0 -25 18 -46 39 l-38 39 45 55 c141 173 217 388 217
612 0 217 -68 419 -195 580 -30 39 -58 75 -61 81 -3 7 14 30 37 52 l43 39 42
-51 c24 -28 64 -85 89 -127z m-1685 -759 c78 -334 344 -567 703 -615 l47 -6 0
-61 0 -61 -62 7 c-330 37 -610 235 -747 528 -45 94 -76 203 -86 301 l-7 66 58
3 59 3 8 -40 c4 -22 16 -78 27 -125z m1695 93 c-16 -152 -82 -325 -169 -446
-51 -72 -159 -179 -229 -226 -115 -78 -288 -141 -430 -156 l-67 -7 0 60 0 61
48 6 c401 54 673 326 727 728 l6 47 61 0 60 0 -7 -67z m-1537 -642 c172 -144
389 -222 617 -222 228 0 429 71 607 214 l60 49 43 -42 44 -43 -42 -35 c-335
-282 -819 -338 -1209 -138 -90 45 -200 119 -233 156 -18 20 -18 21 20 60 22
22 41 40 43 40 2 0 24 -18 50 -39z"/>
</g>
</svg>
