<svg width="14" height="14" viewBox="0 0 14 14" fill="none" xmlns="http://www.w3.org/2000/svg">
<path d="M1.75002 11.0833V2.33333C1.75002 2.17862 1.81148 2.03025 1.92087 1.92085C2.03027 1.81146 2.17864 1.75 2.33335 1.75H7.58335C7.73806 1.75 7.88644 1.81146 7.99583 1.92085C8.10523 2.03025 8.16669 2.17862 8.16669 2.33333V7H9.33335C9.64277 7 9.93952 7.12292 10.1583 7.34171C10.3771 7.5605 10.5 7.85725 10.5 8.16667V10.5C10.5 10.6547 10.5615 10.8031 10.6709 10.9125C10.7803 11.0219 10.9286 11.0833 11.0834 11.0833C11.2381 11.0833 11.3864 11.0219 11.4958 10.9125C11.6052 10.8031 11.6667 10.6547 11.6667 10.5V6.41667H10.5C10.3453 6.41667 10.1969 6.35521 10.0875 6.24581C9.97815 6.13642 9.91669 5.98804 9.91669 5.83333V3.7415L8.9501 2.77492L9.77494 1.95008L12.6624 4.83758C12.7167 4.89168 12.7597 4.95596 12.789 5.02674C12.8184 5.09751 12.8334 5.17339 12.8334 5.25V10.5C12.8334 10.9641 12.649 11.4092 12.3208 11.7374C11.9926 12.0656 11.5475 12.25 11.0834 12.25C10.6192 12.25 10.1741 12.0656 9.84592 11.7374C9.51773 11.4092 9.33335 10.9641 9.33335 10.5V8.16667H8.16669V11.0833H8.75002V12.25H1.16669V11.0833H1.75002ZM2.91669 2.91667V6.41667H7.00002V2.91667H2.91669Z" fill="#3DA56B"/>
</svg>
