<svg width="409" height="409" viewBox="0 0 409 409" fill="none" xmlns="http://www.w3.org/2000/svg">
<rect width="409" height="409" fill="white"/>
<g clip-path="url(#clip0)">
<path d="M84.9967 67.3216L91.0337 65.704C91.5674 65.561 92.1361 65.6359 92.6146 65.9122C93.0931 66.1884 93.4422 66.6435 93.5852 67.1772L100.056 91.3253C100.199 91.859 100.124 92.4277 99.8476 92.9062C99.5713 93.3847 99.1163 93.7339 98.5826 93.8769L62.3604 103.583C61.8267 103.726 61.258 103.651 60.7795 103.374C60.301 103.098 59.9518 102.643 59.8088 102.109L51.1815 69.9119C51.0385 69.3782 51.1134 68.8095 51.3896 68.331C51.6659 67.8525 52.1209 67.5034 52.6546 67.3604L82.8398 59.2723L84.9967 67.3216ZM57.9022 78.8952L63.2943 99.0187L95.4918 90.3914L90.0998 70.2679L57.9022 78.8952ZM55.7454 70.8458L56.8238 74.8705L80.972 68.4001L79.8936 64.3754L55.7454 70.8458ZM82.1949 81.0133L88.2319 79.3957L89.3103 83.4204L83.2733 85.038L82.1949 81.0133Z" fill="black" fill-opacity="0.31"/>
</g>
<path d="M340.5 68.5833H346.75C347.303 68.5833 347.832 68.8028 348.223 69.1935C348.614 69.5842 348.833 70.1141 348.833 70.6667V95.6667C348.833 96.2192 348.614 96.7491 348.223 97.1398C347.832 97.5305 347.303 97.75 346.75 97.75H309.25C308.697 97.75 308.168 97.5305 307.777 97.1398C307.386 96.7491 307.167 96.2192 307.167 95.6667V62.3333C307.167 61.7808 307.386 61.2509 307.777 60.8602C308.168 60.4695 308.697 60.25 309.25 60.25H340.5V68.5833ZM311.333 72.75V93.5833H344.667V72.75H311.333ZM311.333 64.4167V68.5833H336.333V64.4167H311.333ZM334.25 81.0833H340.5V85.25H334.25V81.0833Z" fill="black" fill-opacity="0.31"/>
<g clip-path="url(#clip1)">
<path d="M101.184 334.38L106.597 337.505C107.075 337.781 107.425 338.236 107.568 338.77C107.711 339.303 107.636 339.872 107.359 340.35L94.8595 362.001C94.5832 362.48 94.1282 362.829 93.5945 362.972C93.0608 363.115 92.4921 363.04 92.0136 362.764L59.5376 344.014C59.0591 343.737 58.71 343.282 58.567 342.749C58.424 342.215 58.4988 341.646 58.7751 341.168L75.4418 312.3C75.718 311.822 76.1731 311.473 76.7068 311.33C77.2405 311.187 77.8091 311.261 78.2876 311.538L105.351 327.163L101.184 334.38ZM73.8419 323.405L63.4252 341.447L92.2927 358.114L102.709 340.071L73.8419 323.405ZM78.0085 316.188L75.9252 319.796L97.5758 332.296L99.6592 328.688L78.0085 316.188ZM89.5216 342.08L94.9343 345.205L92.8509 348.813L87.4383 345.688L89.5216 342.08Z" fill="black" fill-opacity="0.31"/>
</g>
<g clip-path="url(#clip2)">
<path d="M220.184 201.38L225.597 204.505C226.075 204.781 226.425 205.236 226.568 205.77C226.711 206.303 226.636 206.872 226.359 207.35L213.859 229.001C213.583 229.48 213.128 229.829 212.594 229.972C212.061 230.115 211.492 230.04 211.014 229.764L178.538 211.014C178.059 210.737 177.71 210.282 177.567 209.749C177.424 209.215 177.499 208.646 177.775 208.168L194.442 179.3C194.718 178.822 195.173 178.473 195.707 178.33C196.24 178.187 196.809 178.261 197.288 178.538L224.351 194.163L220.184 201.38ZM192.842 190.405L182.425 208.447L211.293 225.114L221.709 207.071L192.842 190.405ZM197.009 183.188L194.925 186.796L216.576 199.296L218.659 195.688L197.009 183.188ZM208.522 209.08L213.934 212.205L211.851 215.813L206.438 212.688L208.522 209.08Z" fill="black" fill-opacity="0.31"/>
</g>
<g clip-path="url(#clip3)">
<path d="M344.184 334.38L349.597 337.505C350.075 337.781 350.425 338.236 350.568 338.77C350.711 339.303 350.636 339.872 350.36 340.35L337.86 362.001C337.583 362.48 337.128 362.829 336.594 362.972C336.061 363.115 335.492 363.04 335.014 362.764L302.538 344.014C302.059 343.737 301.71 343.282 301.567 342.749C301.424 342.215 301.499 341.646 301.775 341.168L318.442 312.3C318.718 311.822 319.173 311.473 319.707 311.33C320.24 311.187 320.809 311.261 321.288 311.538L348.351 327.163L344.184 334.38ZM316.842 323.405L306.425 341.447L335.293 358.114L345.709 340.071L316.842 323.405ZM321.009 316.188L318.925 319.796L340.576 332.296L342.659 328.688L321.009 316.188ZM332.522 342.08L337.934 345.205L335.851 348.813L330.438 345.688L332.522 342.08Z" fill="black" fill-opacity="0.31"/>
</g>
<path d="M195 126.583C186.716 126.583 180 116.697 180 104.5C180 92.3034 186.716 82.4167 195 82.4167C203.285 82.4167 210 92.3034 210 104.5C210 116.697 203.285 126.583 195 126.583ZM195 122.167C198.183 122.167 201.235 120.305 203.485 116.992C205.736 113.679 207 109.185 207 104.5C207 99.8145 205.736 95.3209 203.485 92.0078C201.235 88.6946 198.183 86.8333 195 86.8333C191.817 86.8333 188.765 88.6946 186.515 92.0078C184.264 95.3209 183 99.8145 183 104.5C183 109.185 184.264 113.679 186.515 116.992C188.765 120.305 191.817 122.167 195 122.167V122.167ZM193.5 113.333H189V95.6667H193.5V91.25H196.5V95.6667H198C198.696 95.6667 199.379 95.9522 199.971 96.4912C200.564 97.0302 201.043 97.8015 201.354 98.7185C201.666 99.6356 201.797 100.662 201.735 101.683C201.672 102.704 201.418 103.68 201 104.5C201.418 105.32 201.672 106.296 201.735 107.317C201.797 108.338 201.666 109.364 201.354 110.281C201.043 111.199 200.564 111.97 199.971 112.509C199.379 113.048 198.696 113.333 198 113.333H196.5V117.75H193.5V113.333ZM192 106.708V108.917H198C198.199 108.917 198.39 108.8 198.53 108.593C198.671 108.386 198.75 108.105 198.75 107.813C198.75 107.52 198.671 107.239 198.53 107.032C198.39 106.825 198.199 106.708 198 106.708H192ZM192 100.083V102.292H198C198.199 102.292 198.39 102.175 198.53 101.968C198.671 101.761 198.75 101.48 198.75 101.188C198.75 100.895 198.671 100.614 198.53 100.407C198.39 100.2 198.199 100.083 198 100.083H192Z" fill="#FFCA7A" fill-opacity="0.57"/>
<g clip-path="url(#clip4)">
<path d="M314.157 225.769C306.28 228.334 296.833 221.012 293.057 209.415C289.281 197.817 292.606 186.337 300.483 183.772C308.36 181.208 317.807 188.529 321.583 200.127C325.359 211.724 322.034 223.204 314.157 225.769ZM312.79 221.569C315.816 220.584 318.142 217.869 319.256 214.022C320.37 210.175 320.181 205.511 318.73 201.056C317.28 196.6 314.686 192.719 311.521 190.265C308.355 187.812 304.877 186.987 301.85 187.972C298.824 188.957 296.498 191.672 295.384 195.519C294.27 199.366 294.459 204.031 295.91 208.486C297.36 212.941 299.954 216.823 303.119 219.276C306.285 221.73 309.763 222.555 312.79 221.569V221.569ZM308.628 213.634L304.35 215.028L298.88 198.229L303.159 196.836L301.792 192.636L304.644 191.707L306.012 195.907L307.438 195.443C308.1 195.227 308.838 195.287 309.568 195.616C310.298 195.945 310.992 196.531 311.572 197.306C312.152 198.082 312.595 199.017 312.852 200.007C313.109 200.998 313.169 202.004 313.025 202.913C313.676 203.564 314.22 204.412 314.596 205.364C314.972 206.316 315.164 207.333 315.152 208.301C315.14 209.269 314.923 210.151 314.527 210.847C314.13 211.543 313.57 212.026 312.907 212.241L311.481 212.706L312.848 216.905L309.996 217.834L308.628 213.634ZM305.151 207.799L305.835 209.899L311.54 208.042C311.729 207.98 311.875 207.81 311.944 207.57C312.014 207.329 312.002 207.038 311.911 206.76C311.821 206.481 311.659 206.238 311.461 206.085C311.263 205.932 311.045 205.88 310.856 205.942L305.151 207.799ZM303.1 201.5L303.784 203.6L309.489 201.742C309.678 201.681 309.823 201.511 309.893 201.27C309.963 201.03 309.951 200.738 309.86 200.46C309.77 200.182 309.607 199.939 309.41 199.786C309.212 199.632 308.994 199.581 308.805 199.642L303.1 201.5Z" fill="#FFCA7A" fill-opacity="0.57"/>
</g>
<g clip-path="url(#clip5)">
<path d="M101.157 231.769C93.2795 234.334 83.8331 227.012 80.057 215.415C76.2809 203.817 79.6055 192.337 87.483 189.772C95.3605 187.208 104.807 194.529 108.583 206.127C112.359 217.724 109.034 229.204 101.157 231.769ZM99.7896 227.569C102.816 226.584 105.142 223.869 106.256 220.022C107.37 216.175 107.181 211.511 105.73 207.056C104.28 202.6 101.686 198.719 98.5208 196.265C95.3552 193.812 91.8766 192.987 88.8504 193.972C85.8242 194.957 83.4982 197.672 82.384 201.519C81.2699 205.366 81.459 210.031 82.9096 214.486C84.3602 218.941 86.9536 222.823 90.1192 225.276C93.2848 227.73 96.7634 228.555 99.7896 227.569V227.569ZM95.6285 219.634L91.3496 221.028L85.88 204.229L90.1589 202.836L88.7915 198.636L91.6441 197.707L93.0115 201.907L94.4378 201.443C95.1 201.227 95.8375 201.287 96.5677 201.616C97.2979 201.945 97.9919 202.531 98.572 203.306C99.152 204.082 99.5952 205.017 99.8519 206.007C100.109 206.998 100.169 208.004 100.025 208.913C100.676 209.564 101.22 210.412 101.596 211.364C101.972 212.316 102.164 213.333 102.152 214.301C102.14 215.269 101.923 216.151 101.527 216.847C101.13 217.543 100.57 218.026 99.9074 218.241L98.4811 218.706L99.8485 222.905L96.9959 223.834L95.6285 219.634ZM92.1511 213.799L92.8348 215.899L98.54 214.042C98.7291 213.98 98.8745 213.81 98.9441 213.57C99.0138 213.329 99.002 213.038 98.9113 212.76C98.8206 212.481 98.6585 212.238 98.4607 212.085C98.2628 211.932 98.0454 211.88 97.8563 211.942L92.1511 213.799ZM90.1 207.5L90.7837 209.6L96.4889 207.742C96.678 207.681 96.8234 207.511 96.893 207.27C96.9627 207.03 96.9509 206.738 96.8602 206.46C96.7695 206.182 96.6074 205.939 96.4096 205.786C96.2117 205.632 95.9943 205.581 95.8052 205.642L90.1 207.5Z" fill="#FFCA7A" fill-opacity="0.57"/>
</g>
<g clip-path="url(#clip6)">
<path d="M213.157 311.769C205.28 314.334 195.833 307.012 192.057 295.415C188.281 283.817 191.606 272.337 199.483 269.772C207.36 267.208 216.807 274.529 220.583 286.127C224.359 297.724 221.034 309.204 213.157 311.769ZM211.79 307.569C214.816 306.584 217.142 303.869 218.256 300.022C219.37 296.175 219.181 291.511 217.73 287.056C216.28 282.6 213.686 278.719 210.521 276.265C207.355 273.812 203.877 272.987 200.85 273.972C197.824 274.957 195.498 277.672 194.384 281.519C193.27 285.366 193.459 290.031 194.91 294.486C196.36 298.941 198.954 302.823 202.119 305.276C205.285 307.73 208.763 308.555 211.79 307.569V307.569ZM207.628 299.634L203.35 301.028L197.88 284.229L202.159 282.836L200.792 278.636L203.644 277.707L205.012 281.907L206.438 281.443C207.1 281.227 207.838 281.287 208.568 281.616C209.298 281.945 209.992 282.531 210.572 283.306C211.152 284.082 211.595 285.017 211.852 286.007C212.109 286.998 212.169 288.004 212.025 288.913C212.676 289.564 213.22 290.412 213.596 291.364C213.972 292.316 214.164 293.333 214.152 294.301C214.14 295.269 213.923 296.151 213.527 296.847C213.13 297.543 212.57 298.026 211.907 298.241L210.481 298.706L211.848 302.905L208.996 303.834L207.628 299.634ZM204.151 293.799L204.835 295.899L210.54 294.042C210.729 293.98 210.875 293.81 210.944 293.57C211.014 293.329 211.002 293.038 210.911 292.76C210.821 292.481 210.659 292.238 210.461 292.085C210.263 291.932 210.045 291.88 209.856 291.942L204.151 293.799ZM202.1 287.5L202.784 289.6L208.489 287.742C208.678 287.681 208.823 287.511 208.893 287.27C208.963 287.03 208.951 286.738 208.86 286.46C208.77 286.182 208.607 285.939 208.41 285.786C208.212 285.632 207.994 285.581 207.805 285.642L202.1 287.5Z" fill="#FFCA7A" fill-opacity="0.57"/>
</g>
<defs>
<clipPath id="clip0">
<rect width="50" height="50" fill="white" transform="translate(45 62.9409) rotate(-15)"/>
</clipPath>
<clipPath id="clip1">
<rect width="50" height="50" fill="white" transform="translate(76 303) rotate(30)"/>
</clipPath>
<clipPath id="clip2">
<rect width="50" height="50" fill="white" transform="translate(195 170) rotate(30)"/>
</clipPath>
<clipPath id="clip3">
<rect width="50" height="50" fill="white" transform="translate(319 303) rotate(30)"/>
</clipPath>
<clipPath id="clip4">
<rect width="36" height="53" fill="white" transform="translate(282 185.146) rotate(-18.0351)"/>
</clipPath>
<clipPath id="clip5">
<rect width="36" height="53" fill="white" transform="translate(69 191.146) rotate(-18.0351)"/>
</clipPath>
<clipPath id="clip6">
<rect width="36" height="53" fill="white" transform="translate(181 271.146) rotate(-18.0351)"/>
</clipPath>
</defs>
</svg>
