<svg width="60" height="60" viewBox="0 0 60 60" fill="none" xmlns="http://www.w3.org/2000/svg">
<path d="M45 17.5H52.5C53.163 17.5 53.7989 17.7634 54.2678 18.2322C54.7366 18.7011 55 19.337 55 20V50C55 50.663 54.7366 51.2989 54.2678 51.7678C53.7989 52.2366 53.163 52.5 52.5 52.5H7.5C6.83696 52.5 6.20107 52.2366 5.73223 51.7678C5.26339 51.2989 5 50.663 5 50V10C5 9.33696 5.26339 8.70107 5.73223 8.23223C6.20107 7.76339 6.83696 7.5 7.5 7.5H45V17.5ZM10 22.5V47.5H50V22.5H10ZM10 12.5V17.5H40V12.5H10ZM37.5 32.5H45V37.5H37.5V32.5Z" fill="#49CA84"/>
</svg>